<svg width="40" height="40" viewBox="0 0 40 40" fill="none" xmlns="http://www.w3.org/2000/svg">
<g opacity="0.6" clip-path="url(#clip0_2190_301759)">
<rect opacity="0.6" width="15" height="26" rx="2" transform="matrix(-1 0 0 1 30 7)" fill="url(#paint0_linear_2190_301759)"/>
<g filter="url(#filter0_bd_2190_301759)">
<path d="M9.05441 12.751C9.37618 12.4614 9.88889 12.6898 9.88889 13.1227L9.88889 16.6032C9.88889 16.8696 10.0979 17.0893 10.3641 17.1025L29.5248 18.0553C29.791 18.0685 30 18.2882 30 18.5547L30 21.4447C30 21.7112 29.791 21.9308 29.5248 21.9441L10.3641 22.8968C10.0979 22.9101 9.88889 23.1297 9.88889 23.3962L9.88889 26.8773C9.88889 27.3102 9.37616 27.5385 9.0544 27.2489L1.41293 20.3713C1.19225 20.1727 1.19225 19.8267 1.41295 19.628L9.05441 12.751Z" fill="url(#paint1_linear_2190_301759)" fill-opacity="0.7"/>
<path d="M9.38889 16.6032L9.38889 13.1227L1.74742 19.9997L9.38889 26.8773L9.38889 23.3962C9.38889 22.8632 9.8069 22.4239 10.3392 22.3974L29.5 21.4447L29.5 18.5547L10.3392 17.6019C9.80691 17.5755 9.38889 17.1361 9.38889 16.6032Z" stroke="url(#paint2_linear_2190_301759)" stroke-opacity="0.2"/>
</g>
<g filter="url(#filter1_bd_2190_301759)">
<path d="M36 8.61683C36 7.67376 35.3412 6.85883 34.4191 6.66123L24.4191 4.51837C23.174 4.25158 22 5.20069 22 6.47397V33.526C22 34.7993 23.174 35.7484 24.4191 35.4816L34.4191 33.3388C35.3412 33.1412 36 32.3262 36 31.3832V8.61683Z" fill="url(#paint3_linear_2190_301759)" fill-opacity="0.7"/>
<path d="M35.5 8.61683C35.5 7.90952 35.0059 7.29833 34.3143 7.15013L24.3143 5.00727C23.3805 4.80718 22.5 5.51901 22.5 6.47397V33.526C22.5 34.481 23.3805 35.1928 24.3143 34.9927L34.3143 32.8499C35.0059 32.7017 35.5 32.0905 35.5 31.3832V8.61683Z" stroke="url(#paint4_linear_2190_301759)" stroke-opacity="0.2"/>
</g>
<ellipse rx="1" ry="1.5" transform="matrix(-1 0 0 1 27 22.5)" fill="url(#paint5_linear_2190_301759)"/>
</g>
<defs>
<filter id="filter0_bd_2190_301759" x="-6.75293" y="4.62158" width="44.7529" height="30.7568" filterUnits="userSpaceOnUse" color-interpolation-filters="sRGB">
<feFlood flood-opacity="0" result="BackgroundImageFix"/>
<feGaussianBlur in="BackgroundImageFix" stdDeviation="4"/>
<feComposite in2="SourceAlpha" operator="in" result="effect1_backgroundBlur_2190_301759"/>
<feColorMatrix in="SourceAlpha" type="matrix" values="0 0 0 0 0 0 0 0 0 0 0 0 0 0 0 0 0 0 127 0" result="hardAlpha"/>
<feOffset dy="2"/>
<feGaussianBlur stdDeviation="1.5"/>
<feColorMatrix type="matrix" values="0 0 0 0 0 0 0 0 0 0 0 0 0 0 0 0 0 0 0.02 0"/>
<feBlend mode="normal" in2="effect1_backgroundBlur_2190_301759" result="effect2_dropShadow_2190_301759"/>
<feBlend mode="normal" in="SourceGraphic" in2="effect2_dropShadow_2190_301759" result="shape"/>
</filter>
<filter id="filter1_bd_2190_301759" x="14" y="-3.52686" width="30" height="47.0537" filterUnits="userSpaceOnUse" color-interpolation-filters="sRGB">
<feFlood flood-opacity="0" result="BackgroundImageFix"/>
<feGaussianBlur in="BackgroundImageFix" stdDeviation="4"/>
<feComposite in2="SourceAlpha" operator="in" result="effect1_backgroundBlur_2190_301759"/>
<feColorMatrix in="SourceAlpha" type="matrix" values="0 0 0 0 0 0 0 0 0 0 0 0 0 0 0 0 0 0 127 0" result="hardAlpha"/>
<feOffset dy="2"/>
<feGaussianBlur stdDeviation="1.5"/>
<feColorMatrix type="matrix" values="0 0 0 0 0 0 0 0 0 0 0 0 0 0 0 0 0 0 0.02 0"/>
<feBlend mode="normal" in2="effect1_backgroundBlur_2190_301759" result="effect2_dropShadow_2190_301759"/>
<feBlend mode="normal" in="SourceGraphic" in2="effect2_dropShadow_2190_301759" result="shape"/>
</filter>
<linearGradient id="paint0_linear_2190_301759" x1="6.66667" y1="0" x2="6.66667" y2="17.7778" gradientUnits="userSpaceOnUse">
<stop stop-color="white"/>
<stop offset="1" stop-color="white" stop-opacity="0.4"/>
</linearGradient>
<linearGradient id="paint1_linear_2190_301759" x1="1" y1="20" x2="30" y2="20" gradientUnits="userSpaceOnUse">
<stop stop-color="white"/>
<stop offset="1" stop-color="white" stop-opacity="0.4"/>
</linearGradient>
<linearGradient id="paint2_linear_2190_301759" x1="1" y1="20" x2="30" y2="20" gradientUnits="userSpaceOnUse">
<stop stop-color="white"/>
<stop offset="1" stop-color="white" stop-opacity="0.4"/>
</linearGradient>
<linearGradient id="paint3_linear_2190_301759" x1="29" y1="4" x2="29" y2="36" gradientUnits="userSpaceOnUse">
<stop stop-color="white"/>
<stop offset="1" stop-color="white" stop-opacity="0.4"/>
</linearGradient>
<linearGradient id="paint4_linear_2190_301759" x1="29" y1="4" x2="29" y2="36" gradientUnits="userSpaceOnUse">
<stop stop-color="white"/>
<stop offset="1" stop-color="white" stop-opacity="0.4"/>
</linearGradient>
<linearGradient id="paint5_linear_2190_301759" x1="1" y1="0.25" x2="1" y2="2.75" gradientUnits="userSpaceOnUse">
<stop stop-color="white"/>
<stop offset="1" stop-color="white" stop-opacity="0.6"/>
</linearGradient>
<clipPath id="clip0_2190_301759">
<rect width="40" height="40" fill="white" transform="matrix(-1 0 0 1 40 0)"/>
</clipPath>
</defs>
</svg>
