<svg width="32" height="32" viewBox="0 0 32 32" fill="none" xmlns="http://www.w3.org/2000/svg">
<path d="M0 0H12.4878V4.68293H4.68293V12.4878H0V0Z" fill="#969696"/>
<path d="M17.4883 25.2932C19.8273 25.2932 22.1687 24.5127 23.3395 22.9517C24.5102 21.3907 25.2906 19.8297 25.2906 17.4883H29.9736C29.9736 20.7383 28.804 23.8802 26.8517 26.0736C24.5843 28.6209 21.2613 29.9685 17.4883 29.9685L17.4883 25.2932Z" fill="#969696"/>
<path d="M0 29.9766L-5.45859e-07 17.4888L4.68292 17.4888L4.68293 25.2936L12.4878 25.2936L12.4878 29.9766L0 29.9766Z" fill="#969696"/>
<path d="M25.2932 12.4843C25.2932 10.1454 24.5127 7.80393 22.9517 6.6332C21.3907 5.46246 19.8297 4.68201 17.4883 4.68201L17.4883 -0.000912666C20.7383 -0.000912808 23.8802 1.16865 26.0736 3.121C28.6209 5.38831 29.9685 8.71136 29.9685 12.4844L25.2932 12.4843Z" fill="#969696"/>
</svg>
