<svg width="40" height="40" viewBox="0 0 40 40" fill="none" xmlns="http://www.w3.org/2000/svg">
<g clip-path="url(#clip0_2190_301725)">
<circle cx="14" cy="16" r="12" fill="url(#paint0_linear_2190_301725)"/>
<g filter="url(#filter0_bd_2190_301725)">
<circle cx="24" cy="22" r="14" fill="url(#paint1_linear_2190_301725)" fill-opacity="0.9"/>
<circle cx="24" cy="22" r="13.5" stroke="url(#paint2_linear_2190_301725)" stroke-opacity="0.2"/>
</g>
<g filter="url(#filter1_bd_2190_301725)">
<path d="M22.941 20.7314C22.7549 21.349 22.3754 21.8904 21.8583 22.2761C21.3397 22.6612 20.7123 22.872 20.0663 22.8781C18.4703 22.8967 16.1649 22.6401 14.3076 21.3101C13.5329 20.7594 12.1889 20.918 10.7142 21.7394L10.7095 21.7441L10.0049 22.1267C10.001 22.0848 9.99942 22.0428 10.0002 22.0007C9.9993 20.1391 10.3708 18.296 11.093 16.5801C11.8151 14.8642 12.8731 13.3101 14.2049 12.0093L14.4709 12.5273C16.4729 14.7813 18.629 16.2747 20.8923 16.9653C21.6604 17.1976 22.3061 17.7231 22.6895 18.4279C23.073 19.1328 23.1633 19.9604 22.941 20.7314Z" fill="url(#paint3_linear_2190_301725)"/>
</g>
<g filter="url(#filter2_bd_2190_301725)">
<path d="M38.0009 21.9998C38.0027 23.2018 37.8474 24.3988 37.5389 25.5605L37.0256 25.3225C36.9976 25.3085 36.9789 25.2945 36.9556 25.2805C36.3617 24.8728 35.7168 24.5449 35.0375 24.3052C34.3605 24.0451 33.6386 23.922 32.9137 23.9428C32.1887 23.9636 31.4751 24.128 30.8142 24.4265C30.5195 24.5537 30.2018 24.6189 29.8808 24.6178C29.3498 24.6165 28.8344 24.4381 28.416 24.1111C27.9977 23.784 27.7002 23.3268 27.5708 22.8118C27.4748 22.4183 27.4793 22.007 27.5836 21.6156C27.688 21.2242 27.889 20.8653 28.1681 20.5718C28.8075 19.8998 29.3908 18.7331 28.2288 15.6297C27.6174 14.001 27.8181 11.8917 28.8261 9.35299C28.8547 9.27907 28.9032 9.21448 28.9661 9.16632L29.1761 8.99365C31.7784 10.0315 34.0099 11.8252 35.5829 14.1435C37.1559 16.4618 37.9981 19.1982 38.0009 21.9998Z" fill="url(#paint4_linear_2190_301725)" fill-opacity="0.9"/>
</g>
<g filter="url(#filter3_bd_2190_301725)">
<path d="M31.7001 33.6853C29.0241 35.4541 25.8207 36.2476 22.6285 35.9323C19.4363 35.617 16.45 34.2121 14.1719 31.9539L14.3025 31.6646C14.3216 31.6272 14.3434 31.5913 14.3679 31.5572C15.1635 30.7097 16.2137 30.1445 17.3592 29.9472C19.8326 29.3732 20.822 28.7572 21.2093 28.3419C21.9842 27.5412 23.0326 27.0623 24.1451 27.0009C25.2576 26.9395 26.3524 27.3 27.2107 28.0105C28.9658 29.4585 30.3766 31.279 31.3407 33.3399C31.4621 33.4613 31.5834 33.5733 31.7001 33.6853Z" fill="url(#paint5_linear_2190_301725)" fill-opacity="0.9"/>
</g>
</g>
<defs>
<filter id="filter0_bd_2190_301725" x="2" y="0" width="44" height="44" filterUnits="userSpaceOnUse" color-interpolation-filters="sRGB">
<feFlood flood-opacity="0" result="BackgroundImageFix"/>
<feGaussianBlur in="BackgroundImageFix" stdDeviation="4"/>
<feComposite in2="SourceAlpha" operator="in" result="effect1_backgroundBlur_2190_301725"/>
<feColorMatrix in="SourceAlpha" type="matrix" values="0 0 0 0 0 0 0 0 0 0 0 0 0 0 0 0 0 0 127 0" result="hardAlpha"/>
<feOffset dy="2"/>
<feGaussianBlur stdDeviation="1.5"/>
<feColorMatrix type="matrix" values="0 0 0 0 0 0 0 0 0 0 0 0 0 0 0 0 0 0 0.02 0"/>
<feBlend mode="normal" in2="effect1_backgroundBlur_2190_301725" result="effect2_dropShadow_2190_301725"/>
<feBlend mode="normal" in="SourceGraphic" in2="effect2_dropShadow_2190_301725" result="shape"/>
</filter>
<filter id="filter1_bd_2190_301725" x="6" y="8.00928" width="21.0605" height="19.8696" filterUnits="userSpaceOnUse" color-interpolation-filters="sRGB">
<feFlood flood-opacity="0" result="BackgroundImageFix"/>
<feGaussianBlur in="BackgroundImageFix" stdDeviation="2"/>
<feComposite in2="SourceAlpha" operator="in" result="effect1_backgroundBlur_2190_301725"/>
<feColorMatrix in="SourceAlpha" type="matrix" values="0 0 0 0 0 0 0 0 0 0 0 0 0 0 0 0 0 0 127 0" result="hardAlpha"/>
<feOffset dy="2"/>
<feGaussianBlur stdDeviation="1.5"/>
<feColorMatrix type="matrix" values="0 0 0 0 0 0 0 0 0 0 0 0 0 0 0 0 0 0 0.02 0"/>
<feBlend mode="normal" in2="effect1_backgroundBlur_2190_301725" result="effect2_dropShadow_2190_301725"/>
<feBlend mode="normal" in="SourceGraphic" in2="effect2_dropShadow_2190_301725" result="shape"/>
</filter>
<filter id="filter2_bd_2190_301725" x="23.502" y="4.99365" width="18.499" height="25.5669" filterUnits="userSpaceOnUse" color-interpolation-filters="sRGB">
<feFlood flood-opacity="0" result="BackgroundImageFix"/>
<feGaussianBlur in="BackgroundImageFix" stdDeviation="2"/>
<feComposite in2="SourceAlpha" operator="in" result="effect1_backgroundBlur_2190_301725"/>
<feColorMatrix in="SourceAlpha" type="matrix" values="0 0 0 0 0 0 0 0 0 0 0 0 0 0 0 0 0 0 127 0" result="hardAlpha"/>
<feOffset dy="2"/>
<feGaussianBlur stdDeviation="1.5"/>
<feColorMatrix type="matrix" values="0 0 0 0 0 0 0 0 0 0 0 0 0 0 0 0 0 0 0.02 0"/>
<feBlend mode="normal" in2="effect1_backgroundBlur_2190_301725" result="effect2_dropShadow_2190_301725"/>
<feBlend mode="normal" in="SourceGraphic" in2="effect2_dropShadow_2190_301725" result="shape"/>
</filter>
<filter id="filter3_bd_2190_301725" x="10.1719" y="22.9941" width="25.5283" height="18.0059" filterUnits="userSpaceOnUse" color-interpolation-filters="sRGB">
<feFlood flood-opacity="0" result="BackgroundImageFix"/>
<feGaussianBlur in="BackgroundImageFix" stdDeviation="2"/>
<feComposite in2="SourceAlpha" operator="in" result="effect1_backgroundBlur_2190_301725"/>
<feColorMatrix in="SourceAlpha" type="matrix" values="0 0 0 0 0 0 0 0 0 0 0 0 0 0 0 0 0 0 127 0" result="hardAlpha"/>
<feOffset dy="2"/>
<feGaussianBlur stdDeviation="1.5"/>
<feColorMatrix type="matrix" values="0 0 0 0 0 0 0 0 0 0 0 0 0 0 0 0 0 0 0.02 0"/>
<feBlend mode="normal" in2="effect1_backgroundBlur_2190_301725" result="effect2_dropShadow_2190_301725"/>
<feBlend mode="normal" in="SourceGraphic" in2="effect2_dropShadow_2190_301725" result="shape"/>
</filter>
<linearGradient id="paint0_linear_2190_301725" x1="21.2" y1="4" x2="8" y2="25.6" gradientUnits="userSpaceOnUse">
<stop offset="0.17707" stop-color="#FBEB4F"/>
<stop offset="0.864598" stop-color="#DB5B3B"/>
</linearGradient>
<linearGradient id="paint1_linear_2190_301725" x1="24" y1="8" x2="24" y2="36" gradientUnits="userSpaceOnUse">
<stop stop-color="white"/>
<stop offset="1" stop-color="white" stop-opacity="0.4"/>
</linearGradient>
<linearGradient id="paint2_linear_2190_301725" x1="24" y1="8" x2="24" y2="36" gradientUnits="userSpaceOnUse">
<stop stop-color="white"/>
<stop offset="1" stop-color="white" stop-opacity="0.4"/>
</linearGradient>
<linearGradient id="paint3_linear_2190_301725" x1="16.5302" y1="12.0093" x2="16.5302" y2="22.879" gradientUnits="userSpaceOnUse">
<stop stop-color="white"/>
<stop offset="1" stop-color="white" stop-opacity="0.4"/>
</linearGradient>
<linearGradient id="paint4_linear_2190_301725" x1="32.7514" y1="8.99365" x2="32.7514" y2="25.5605" gradientUnits="userSpaceOnUse">
<stop stop-color="white"/>
<stop offset="1" stop-color="white" stop-opacity="0.4"/>
</linearGradient>
<linearGradient id="paint5_linear_2190_301725" x1="22.936" y1="26.9941" x2="22.936" y2="36" gradientUnits="userSpaceOnUse">
<stop stop-color="white"/>
<stop offset="1" stop-color="white" stop-opacity="0.4"/>
</linearGradient>
<clipPath id="clip0_2190_301725">
<rect width="40" height="40" fill="white"/>
</clipPath>
</defs>
</svg>
