<svg width="40" height="40" viewBox="0 0 40 40" fill="none" xmlns="http://www.w3.org/2000/svg">
<g clip-path="url(#clip0_2265_392576)">
<circle cx="14" cy="16" r="12" fill="url(#paint0_linear_2265_392576)"/>
<g opacity="0.3" filter="url(#filter0_bd_2265_392576)">
<path d="M13.0923 14.9136C12.9328 15.4429 12.6075 15.9071 12.1643 16.2376C11.7197 16.5678 11.182 16.7484 10.6283 16.7536C9.26025 16.7696 7.28423 16.5496 5.69221 15.4096C5.0282 14.9376 3.87619 15.0736 2.61217 15.7776L2.60817 15.7816L2.00417 16.1096C2.00084 16.0737 1.9995 16.0376 2.00017 16.0016C1.9994 14.4059 2.31787 12.8262 2.93682 11.3554C3.55577 9.8846 4.46269 8.5525 5.60421 7.4375L5.83221 7.88151C7.54823 9.81353 9.39625 11.0935 11.3363 11.6855C11.9946 11.8846 12.5481 12.335 12.8767 12.9392C13.2054 13.5434 13.2828 14.2527 13.0923 14.9136V14.9136Z" fill="url(#paint1_linear_2265_392576)"/>
</g>
<g opacity="0.3" filter="url(#filter1_bd_2265_392576)">
<path d="M25.9991 15.9997C26.0006 17.0299 25.8675 18.056 25.6031 19.0517L25.1631 18.8477C25.1391 18.8357 25.1231 18.8237 25.1031 18.8117C24.594 18.4623 24.0413 18.1812 23.4591 17.9757C22.8788 17.7528 22.26 17.6473 21.6386 17.6651C21.0172 17.683 20.4056 17.8239 19.839 18.0797C19.5865 18.1888 19.3141 18.2446 19.039 18.2437C18.5838 18.2425 18.1421 18.0897 17.7835 17.8093C17.4249 17.529 17.17 17.1371 17.059 16.6957C16.9768 16.3584 16.9806 16.0058 17.07 15.6704C17.1595 15.3349 17.3317 15.0273 17.571 14.7757C18.119 14.1997 18.619 13.1997 17.623 10.5396C17.099 9.14361 17.271 7.33559 18.135 5.15957C18.1595 5.09621 18.201 5.04084 18.255 4.99956L18.435 4.85156C20.6655 5.74111 22.5783 7.27862 23.9265 9.26572C25.2748 11.2528 25.9967 13.5984 25.9991 15.9997V15.9997Z" fill="url(#paint2_linear_2265_392576)" fill-opacity="0.9"/>
</g>
<g opacity="0.3" filter="url(#filter2_bd_2265_392576)">
<path d="M20.6023 26.0165C18.3086 27.5327 15.5628 28.2128 12.8267 27.9426C10.0905 27.6723 7.53083 26.4681 5.57812 24.5325L5.69013 24.2845C5.70642 24.2524 5.72514 24.2217 5.74613 24.1925C6.42812 23.466 7.32822 22.9816 8.31016 22.8125C10.4302 22.3204 11.2782 21.7924 11.6102 21.4364C12.2744 20.7501 13.173 20.3397 14.1266 20.287C15.0802 20.2344 16.0186 20.5434 16.7543 21.1524C18.2586 22.3935 19.4679 23.954 20.2943 25.7205C20.3983 25.8245 20.5023 25.9205 20.6023 26.0165Z" fill="url(#paint3_linear_2265_392576)" fill-opacity="0.9"/>
</g>
<g filter="url(#filter3_bd_2265_392576)">
<path d="M19.6374 9.80788C21.0894 8.78714 22.7587 8.22246 24.5224 8.10559C27.2044 7.78335 28.9694 8.2266 30.5935 8.88629C32.2568 9.56188 33.5931 10.5809 34.6962 11.925C35.7856 13.2525 36.5821 14.8382 36.8178 16.5779C37.1453 18.2705 37.0305 20.0649 36.4792 21.7445C35.9302 23.417 35.0472 24.8757 33.8339 26.1078C33.8125 26.1295 33.7901 26.1502 33.7668 26.1699C33.2971 26.5674 32.8876 27.1448 32.6442 27.7214C32.6038 27.817 32.5645 27.9093 32.5264 27.9984C32.2379 28.674 32.0242 29.1744 32.0242 29.6596V30.3715C32.0242 30.9331 31.5758 31.3883 31.0228 31.3883H21.0085C20.4555 31.3883 20.0071 30.9331 20.0071 30.3715V29.6596C20.0071 29.4234 19.9497 29.1703 19.8305 28.8403C19.7705 28.6742 19.7008 28.5038 19.6199 28.3073L19.611 28.2856C19.5377 28.1077 19.4559 27.9089 19.3787 27.7017C19.1364 27.1364 18.7203 26.537 18.1974 26.0061C17.2246 25.0182 16.4577 23.9125 15.9057 22.6902C15.2099 21.3765 15 19.881 15 18.5756C15 16.89 15.4377 15.1028 16.2141 13.6328C17.0115 12.0206 18.2454 10.7864 19.6374 9.80788Z" fill="url(#paint4_linear_2265_392576)" fill-opacity="0.9"/>
<path d="M31.5235 32.9136C32.0765 32.9136 32.5249 33.3689 32.5249 33.9305C32.5249 34.4921 32.0765 34.9474 31.5235 34.9474H31.3895C31.4747 35.097 31.5235 35.2706 31.5235 35.4558C31.5235 36.0175 31.0751 36.4727 30.522 36.4727H27.0171V36.9812C27.0171 37.5428 26.5687 37.998 26.0156 37.998C25.4626 37.998 25.0142 37.5428 25.0142 36.9812V36.4727H21.5092C20.9562 36.4727 20.5078 36.0175 20.5078 35.4558C20.5078 35.2706 20.5566 35.097 20.6418 34.9474H20.5078C19.9548 34.9474 19.5064 34.4921 19.5064 33.9305C19.5064 33.3689 19.9548 32.9136 20.5078 32.9136H31.5235Z" fill="url(#paint5_linear_2265_392576)" fill-opacity="0.9"/>
<path d="M24.5821 8.60202L24.5688 8.60362L24.5555 8.6045C22.8787 8.71561 21.2983 9.25144 19.9249 10.2169C18.58 11.1624 17.4126 12.3375 16.6623 13.8545L16.6624 13.8545L16.6562 13.8663C15.9186 15.263 15.5 16.9698 15.5 18.5756C15.5 19.8349 15.7037 21.2405 16.3476 22.4562L16.355 22.4701L16.3614 22.4844C16.8879 23.6503 17.6203 24.7074 18.5537 25.6553C19.112 26.2222 19.5672 26.8722 19.8383 27.5048L19.8431 27.5159L19.8473 27.5273C19.921 27.7253 19.9996 27.9163 20.0733 28.0952C20.0733 28.0952 20.0733 28.0952 20.0733 28.0952L20.0822 28.1168L20.0822 28.1169C20.1626 28.3121 20.2365 28.4924 20.3008 28.6705C20.4289 29.0253 20.5071 29.3407 20.5071 29.6596V30.3715C20.5071 30.6642 20.7388 30.8883 21.0085 30.8883H31.0228C31.2925 30.8883 31.5242 30.6642 31.5242 30.3715V29.6596C31.5242 29.0707 31.7742 28.4859 32.0386 27.8675C32.0479 27.8457 32.0572 27.8239 32.0665 27.8021C32.1047 27.7128 32.1437 27.6215 32.1836 27.527C32.4547 26.8845 32.909 26.2409 33.4439 25.7882C33.4555 25.7783 33.4668 25.7679 33.4776 25.7569C34.6356 24.5811 35.4786 23.1895 36.0041 21.5885C36.5293 19.9886 36.638 18.2805 36.3269 16.6729L36.3243 16.6591L36.3224 16.6451C36.1014 15.0146 35.3525 13.513 34.3097 12.2422C33.2567 10.9592 31.9875 9.99214 30.4054 9.34954C28.8452 8.71582 27.1657 8.2916 24.5821 8.60202ZM30.955 35.1949L30.5292 34.4474H31.3895H31.5235C31.7932 34.4474 32.0249 34.2232 32.0249 33.9305C32.0249 33.6378 31.7932 33.4136 31.5235 33.4136H20.5078C20.2381 33.4136 20.0064 33.6378 20.0064 33.9305C20.0064 34.2232 20.2381 34.4474 20.5078 34.4474H20.6418H21.5021L21.0763 35.1949C21.033 35.2708 21.0078 35.3594 21.0078 35.4558C21.0078 35.7486 21.2395 35.9727 21.5092 35.9727H25.0142H25.5142V36.4727V36.9812C25.5142 37.2739 25.7459 37.498 26.0156 37.498C26.2854 37.498 26.5171 37.2739 26.5171 36.9812V36.4727V35.9727H27.0171H30.522C30.7918 35.9727 31.0235 35.7486 31.0235 35.4558C31.0235 35.3594 30.9983 35.2708 30.955 35.1949Z" stroke="url(#paint6_linear_2265_392576)" stroke-opacity="0.2"/>
</g>
<path d="M28.6598 13.0599C28.7399 13.1095 28.8019 13.1867 28.8356 13.2789C28.8693 13.3711 28.8728 13.4728 28.8455 13.5674L27.372 18.6876H30.0908C30.1707 18.6875 30.2488 18.7125 30.3156 18.7594C30.3824 18.8064 30.4348 18.8732 30.4665 18.9516C30.4982 19.0301 30.5077 19.1167 30.4938 19.2009C30.48 19.285 30.4434 19.363 30.3886 19.4251L23.8434 26.8622C23.78 26.9342 23.6957 26.9812 23.6043 26.9954C23.5128 27.0097 23.4195 26.9904 23.3396 26.9406C23.2597 26.8909 23.1979 26.8137 23.1643 26.7216C23.1307 26.6295 23.1272 26.528 23.1545 26.4335L24.628 21.3124H21.9092C21.8293 21.3124 21.7512 21.2875 21.6844 21.2405C21.6176 21.1936 21.5652 21.1268 21.5335 21.0484C21.5018 20.9699 21.4923 20.8833 21.5062 20.7991C21.52 20.715 21.5566 20.637 21.6114 20.5748L28.1566 13.1378C28.2199 13.0658 28.304 13.0189 28.3954 13.0046C28.4868 12.9903 28.5799 13.0095 28.6598 13.059V13.0599Z" fill="url(#paint7_linear_2265_392576)"/>
</g>
<defs>
<filter id="filter0_bd_2265_392576" x="-2" y="3.4375" width="19.1953" height="18.3164" filterUnits="userSpaceOnUse" color-interpolation-filters="sRGB">
<feFlood flood-opacity="0" result="BackgroundImageFix"/>
<feGaussianBlur in="BackgroundImageFix" stdDeviation="2"/>
<feComposite in2="SourceAlpha" operator="in" result="effect1_backgroundBlur_2265_392576"/>
<feColorMatrix in="SourceAlpha" type="matrix" values="0 0 0 0 0 0 0 0 0 0 0 0 0 0 0 0 0 0 127 0" result="hardAlpha"/>
<feOffset dy="2"/>
<feGaussianBlur stdDeviation="1.5"/>
<feColorMatrix type="matrix" values="0 0 0 0 0 0 0 0 0 0 0 0 0 0 0 0 0 0 0.02 0"/>
<feBlend mode="normal" in2="effect1_backgroundBlur_2265_392576" result="effect2_dropShadow_2265_392576"/>
<feBlend mode="normal" in="SourceGraphic" in2="effect2_dropShadow_2265_392576" result="shape"/>
</filter>
<filter id="filter1_bd_2265_392576" x="13" y="0.851562" width="17" height="23.1992" filterUnits="userSpaceOnUse" color-interpolation-filters="sRGB">
<feFlood flood-opacity="0" result="BackgroundImageFix"/>
<feGaussianBlur in="BackgroundImageFix" stdDeviation="2"/>
<feComposite in2="SourceAlpha" operator="in" result="effect1_backgroundBlur_2265_392576"/>
<feColorMatrix in="SourceAlpha" type="matrix" values="0 0 0 0 0 0 0 0 0 0 0 0 0 0 0 0 0 0 127 0" result="hardAlpha"/>
<feOffset dy="2"/>
<feGaussianBlur stdDeviation="1.5"/>
<feColorMatrix type="matrix" values="0 0 0 0 0 0 0 0 0 0 0 0 0 0 0 0 0 0 0.02 0"/>
<feBlend mode="normal" in2="effect1_backgroundBlur_2265_392576" result="effect2_dropShadow_2265_392576"/>
<feBlend mode="normal" in="SourceGraphic" in2="effect2_dropShadow_2265_392576" result="shape"/>
</filter>
<filter id="filter2_bd_2265_392576" x="1.57812" y="16.2812" width="23.0234" height="16.7188" filterUnits="userSpaceOnUse" color-interpolation-filters="sRGB">
<feFlood flood-opacity="0" result="BackgroundImageFix"/>
<feGaussianBlur in="BackgroundImageFix" stdDeviation="2"/>
<feComposite in2="SourceAlpha" operator="in" result="effect1_backgroundBlur_2265_392576"/>
<feColorMatrix in="SourceAlpha" type="matrix" values="0 0 0 0 0 0 0 0 0 0 0 0 0 0 0 0 0 0 127 0" result="hardAlpha"/>
<feOffset dy="2"/>
<feGaussianBlur stdDeviation="1.5"/>
<feColorMatrix type="matrix" values="0 0 0 0 0 0 0 0 0 0 0 0 0 0 0 0 0 0 0.02 0"/>
<feBlend mode="normal" in2="effect1_backgroundBlur_2265_392576" result="effect2_dropShadow_2265_392576"/>
<feBlend mode="normal" in="SourceGraphic" in2="effect2_dropShadow_2265_392576" result="shape"/>
</filter>
<filter id="filter3_bd_2265_392576" x="7" y="-0.00195312" width="38" height="46" filterUnits="userSpaceOnUse" color-interpolation-filters="sRGB">
<feFlood flood-opacity="0" result="BackgroundImageFix"/>
<feGaussianBlur in="BackgroundImageFix" stdDeviation="4"/>
<feComposite in2="SourceAlpha" operator="in" result="effect1_backgroundBlur_2265_392576"/>
<feColorMatrix in="SourceAlpha" type="matrix" values="0 0 0 0 0 0 0 0 0 0 0 0 0 0 0 0 0 0 127 0" result="hardAlpha"/>
<feOffset dy="2"/>
<feGaussianBlur stdDeviation="1.5"/>
<feColorMatrix type="matrix" values="0 0 0 0 0 0 0 0 0 0 0 0 0 0 0 0 0 0 0.02 0"/>
<feBlend mode="normal" in2="effect1_backgroundBlur_2265_392576" result="effect2_dropShadow_2265_392576"/>
<feBlend mode="normal" in="SourceGraphic" in2="effect2_dropShadow_2265_392576" result="shape"/>
</filter>
<linearGradient id="paint0_linear_2265_392576" x1="18.5" y1="4" x2="8.5" y2="26" gradientUnits="userSpaceOnUse">
<stop stop-color="#7EEC96"/>
<stop offset="0.908412" stop-color="#00A775"/>
</linearGradient>
<linearGradient id="paint1_linear_2265_392576" x1="7.59733" y1="7.4375" x2="7.59733" y2="16.7544" gradientUnits="userSpaceOnUse">
<stop stop-color="white"/>
<stop offset="1" stop-color="white" stop-opacity="0.4"/>
</linearGradient>
<linearGradient id="paint2_linear_2265_392576" x1="21.4996" y1="4.85156" x2="21.4996" y2="19.0517" gradientUnits="userSpaceOnUse">
<stop stop-color="white"/>
<stop offset="1" stop-color="white" stop-opacity="0.4"/>
</linearGradient>
<linearGradient id="paint3_linear_2265_392576" x1="13.0902" y1="20.2812" x2="13.0902" y2="28.0005" gradientUnits="userSpaceOnUse">
<stop stop-color="white"/>
<stop offset="1" stop-color="white" stop-opacity="0.4"/>
</linearGradient>
<linearGradient id="paint4_linear_2265_392576" x1="26" y1="7.99805" x2="26" y2="37.998" gradientUnits="userSpaceOnUse">
<stop stop-color="white"/>
<stop offset="1" stop-color="white" stop-opacity="0.4"/>
</linearGradient>
<linearGradient id="paint5_linear_2265_392576" x1="26" y1="7.99805" x2="26" y2="37.998" gradientUnits="userSpaceOnUse">
<stop stop-color="white"/>
<stop offset="1" stop-color="white" stop-opacity="0.4"/>
</linearGradient>
<linearGradient id="paint6_linear_2265_392576" x1="26" y1="7.99805" x2="26" y2="37.998" gradientUnits="userSpaceOnUse">
<stop stop-color="white"/>
<stop offset="1" stop-color="white" stop-opacity="0.4"/>
</linearGradient>
<linearGradient id="paint7_linear_2265_392576" x1="26" y1="14.1667" x2="26" y2="25.8333" gradientUnits="userSpaceOnUse">
<stop stop-color="white"/>
<stop offset="1" stop-color="white" stop-opacity="0.6"/>
</linearGradient>
<clipPath id="clip0_2265_392576">
<rect width="40" height="40" fill="white"/>
</clipPath>
</defs>
</svg>
