<svg width="40" height="40" viewBox="0 0 40 40" fill="none" xmlns="http://www.w3.org/2000/svg">
<g clip-path="url(#clip0_2265_395199)">
<circle cx="14" cy="16" r="12" fill="url(#paint0_linear_2265_395199)"/>
<g opacity="0.3" filter="url(#filter0_bd_2265_395199)">
<path d="M13.0923 14.9136C12.9328 15.4429 12.6075 15.9071 12.1643 16.2376C11.7197 16.5678 11.182 16.7484 10.6283 16.7536C9.26025 16.7696 7.28423 16.5496 5.69221 15.4096C5.0282 14.9376 3.87619 15.0736 2.61217 15.7776L2.60817 15.7816L2.00417 16.1096C2.00084 16.0737 1.9995 16.0376 2.00017 16.0016C1.9994 14.4059 2.31787 12.8262 2.93682 11.3554C3.55577 9.8846 4.46269 8.5525 5.60421 7.4375L5.83221 7.88151C7.54823 9.81353 9.39625 11.0935 11.3363 11.6855C11.9946 11.8846 12.5481 12.335 12.8767 12.9392C13.2054 13.5434 13.2828 14.2527 13.0923 14.9136Z" fill="url(#paint1_linear_2265_395199)"/>
</g>
<g opacity="0.3" filter="url(#filter1_bd_2265_395199)">
<path d="M25.9991 15.9997C26.0006 17.0299 25.8675 18.056 25.6031 19.0517L25.1631 18.8477C25.1391 18.8357 25.1231 18.8237 25.1031 18.8117C24.594 18.4623 24.0413 18.1812 23.4591 17.9757C22.8788 17.7528 22.26 17.6473 21.6386 17.6651C21.0172 17.683 20.4056 17.8239 19.839 18.0797C19.5865 18.1888 19.3141 18.2446 19.039 18.2437C18.5838 18.2425 18.1421 18.0897 17.7835 17.8093C17.4249 17.529 17.17 17.1371 17.059 16.6957C16.9768 16.3584 16.9806 16.0058 17.07 15.6704C17.1595 15.3349 17.3317 15.0273 17.571 14.7757C18.119 14.1997 18.619 13.1997 17.623 10.5396C17.099 9.14361 17.271 7.33559 18.135 5.15957C18.1595 5.09621 18.201 5.04084 18.255 4.99956L18.435 4.85156C20.6655 5.74111 22.5783 7.27862 23.9265 9.26572C25.2748 11.2528 25.9967 13.5984 25.9991 15.9997Z" fill="url(#paint2_linear_2265_395199)" fill-opacity="0.9"/>
</g>
<g opacity="0.3" filter="url(#filter2_bd_2265_395199)">
<path d="M20.6023 26.0165C18.3086 27.5327 15.5628 28.2128 12.8267 27.9426C10.0905 27.6723 7.53083 26.4681 5.57812 24.5325L5.69013 24.2845C5.70642 24.2524 5.72514 24.2217 5.74613 24.1925C6.42812 23.466 7.32822 22.9816 8.31016 22.8125C10.4302 22.3204 11.2782 21.7924 11.6102 21.4364C12.2744 20.7501 13.173 20.3397 14.1266 20.287C15.0802 20.2344 16.0186 20.5434 16.7543 21.1524C18.2586 22.3935 19.4679 23.954 20.2943 25.7205C20.3983 25.8245 20.5023 25.9205 20.6023 26.0165Z" fill="url(#paint3_linear_2265_395199)" fill-opacity="0.9"/>
</g>
<g filter="url(#filter3_bd_2265_395199)">
<path d="M25.4223 18.9217C24.5889 19.5596 23.4111 19.5596 22.5777 18.9217C19.8638 16.8443 16.5792 15.477 12.9967 15.1035C11.8981 14.9889 11 15.8954 11 17V29.7024C11 30.8069 11.8977 31.695 12.9959 31.8127C16.2588 32.1625 19.8334 33.3334 22.7798 35.1724C23.5238 35.6367 24.4763 35.6367 25.2177 35.1683C28.156 33.3118 31.565 32.1872 35.0478 31.8251C36.1295 31.7127 37 30.8333 37 29.7458V17C37 15.8954 36.1019 14.9889 35.0033 15.1035C31.4208 15.477 28.1362 16.8443 25.4223 18.9217Z" fill="url(#paint4_linear_2265_395199)" fill-opacity="0.7"/>
<path d="M22.2738 19.3187C23.2866 20.0939 24.7134 20.094 25.7262 19.3187C28.3695 17.2955 31.5674 15.9644 35.0552 15.6008C35.8238 15.5206 36.5 16.1558 36.5 17V29.7458C36.5 30.5522 35.8486 31.2392 34.9961 31.3278C31.4423 31.6973 27.9587 32.8451 24.9506 34.7456C24.3725 35.1108 23.6266 35.1116 23.0446 34.7483C20.031 32.8674 16.3834 31.673 13.0492 31.3156C12.1726 31.2216 11.5 30.5202 11.5 29.7024V17C11.5 16.1558 12.1762 15.5206 12.9448 15.6008C16.4326 15.9644 19.6305 17.2955 22.2738 19.3187Z" stroke="url(#paint5_linear_2265_395199)" stroke-opacity="0.2"/>
</g>
<g filter="url(#filter4_bd_2265_395199)">
<path d="M25.4326 14.3728C24.5982 15.0306 23.4018 15.0306 22.5674 14.3728C19.5872 12.0237 15.9584 10.4872 11.9969 10.0977C10.8976 9.98957 10 10.8954 10 12V26.3883C10 27.4929 10.8976 28.3779 11.9969 28.486C15.9599 28.8757 19.5899 30.4132 22.5708 32.7638C23.4037 33.4206 24.5976 33.4221 25.4316 32.7665C28.412 30.4234 32.0411 28.8786 36.0032 28.4866C37.1024 28.3779 38 27.4929 38 26.3883V12C38 10.8954 37.1024 9.98957 36.0031 10.0977C32.0416 10.4872 28.4128 12.0237 25.4326 14.3728Z" fill="url(#paint6_linear_2265_395199)" fill-opacity="0.9"/>
<path d="M22.2578 14.7655C23.2739 15.5663 24.7261 15.5663 25.7422 14.7655C28.6504 12.4731 32.1895 10.9751 36.0521 10.5953C36.8243 10.5193 37.5 11.1568 37.5 12V26.3883C37.5 27.2056 36.8285 27.9025 35.9539 27.9891C31.8925 28.3909 28.1741 29.9744 25.1226 32.3734C24.4704 32.8861 23.5321 32.8852 22.8804 32.3712C19.8276 29.9639 16.1079 28.3878 12.0458 27.9884C11.1715 27.9024 10.5 27.2057 10.5 26.3883V12C10.5 11.1568 11.1757 10.5193 11.9479 10.5953C15.8105 10.9751 19.3496 12.4731 22.2578 14.7655Z" stroke="url(#paint7_linear_2265_395199)" stroke-opacity="0.2"/>
</g>
<path opacity="0.2" d="M24 16V32" stroke="white"/>
</g>
<defs>
<filter id="filter0_bd_2265_395199" x="-2" y="3.4375" width="19.1953" height="18.3164" filterUnits="userSpaceOnUse" color-interpolation-filters="sRGB">
<feFlood flood-opacity="0" result="BackgroundImageFix"/>
<feGaussianBlur in="BackgroundImageFix" stdDeviation="2"/>
<feComposite in2="SourceAlpha" operator="in" result="effect1_backgroundBlur_2265_395199"/>
<feColorMatrix in="SourceAlpha" type="matrix" values="0 0 0 0 0 0 0 0 0 0 0 0 0 0 0 0 0 0 127 0" result="hardAlpha"/>
<feOffset dy="2"/>
<feGaussianBlur stdDeviation="1.5"/>
<feColorMatrix type="matrix" values="0 0 0 0 0 0 0 0 0 0 0 0 0 0 0 0 0 0 0.02 0"/>
<feBlend mode="normal" in2="effect1_backgroundBlur_2265_395199" result="effect2_dropShadow_2265_395199"/>
<feBlend mode="normal" in="SourceGraphic" in2="effect2_dropShadow_2265_395199" result="shape"/>
</filter>
<filter id="filter1_bd_2265_395199" x="13" y="0.851562" width="17" height="23.1992" filterUnits="userSpaceOnUse" color-interpolation-filters="sRGB">
<feFlood flood-opacity="0" result="BackgroundImageFix"/>
<feGaussianBlur in="BackgroundImageFix" stdDeviation="2"/>
<feComposite in2="SourceAlpha" operator="in" result="effect1_backgroundBlur_2265_395199"/>
<feColorMatrix in="SourceAlpha" type="matrix" values="0 0 0 0 0 0 0 0 0 0 0 0 0 0 0 0 0 0 127 0" result="hardAlpha"/>
<feOffset dy="2"/>
<feGaussianBlur stdDeviation="1.5"/>
<feColorMatrix type="matrix" values="0 0 0 0 0 0 0 0 0 0 0 0 0 0 0 0 0 0 0.02 0"/>
<feBlend mode="normal" in2="effect1_backgroundBlur_2265_395199" result="effect2_dropShadow_2265_395199"/>
<feBlend mode="normal" in="SourceGraphic" in2="effect2_dropShadow_2265_395199" result="shape"/>
</filter>
<filter id="filter2_bd_2265_395199" x="1.57812" y="16.2812" width="23.0234" height="16.7188" filterUnits="userSpaceOnUse" color-interpolation-filters="sRGB">
<feFlood flood-opacity="0" result="BackgroundImageFix"/>
<feGaussianBlur in="BackgroundImageFix" stdDeviation="2"/>
<feComposite in2="SourceAlpha" operator="in" result="effect1_backgroundBlur_2265_395199"/>
<feColorMatrix in="SourceAlpha" type="matrix" values="0 0 0 0 0 0 0 0 0 0 0 0 0 0 0 0 0 0 127 0" result="hardAlpha"/>
<feOffset dy="2"/>
<feGaussianBlur stdDeviation="1.5"/>
<feColorMatrix type="matrix" values="0 0 0 0 0 0 0 0 0 0 0 0 0 0 0 0 0 0 0.02 0"/>
<feBlend mode="normal" in2="effect1_backgroundBlur_2265_395199" result="effect2_dropShadow_2265_395199"/>
<feBlend mode="normal" in="SourceGraphic" in2="effect2_dropShadow_2265_395199" result="shape"/>
</filter>
<filter id="filter3_bd_2265_395199" x="3" y="7.09375" width="42" height="36.4258" filterUnits="userSpaceOnUse" color-interpolation-filters="sRGB">
<feFlood flood-opacity="0" result="BackgroundImageFix"/>
<feGaussianBlur in="BackgroundImageFix" stdDeviation="4"/>
<feComposite in2="SourceAlpha" operator="in" result="effect1_backgroundBlur_2265_395199"/>
<feColorMatrix in="SourceAlpha" type="matrix" values="0 0 0 0 0 0 0 0 0 0 0 0 0 0 0 0 0 0 127 0" result="hardAlpha"/>
<feOffset dy="2"/>
<feGaussianBlur stdDeviation="1.5"/>
<feColorMatrix type="matrix" values="0 0 0 0 0 0 0 0 0 0 0 0 0 0 0 0 0 0 0.02 0"/>
<feBlend mode="normal" in2="effect1_backgroundBlur_2265_395199" result="effect2_dropShadow_2265_395199"/>
<feBlend mode="normal" in="SourceGraphic" in2="effect2_dropShadow_2265_395199" result="shape"/>
</filter>
<filter id="filter4_bd_2265_395199" x="2" y="2.08984" width="44" height="39.168" filterUnits="userSpaceOnUse" color-interpolation-filters="sRGB">
<feFlood flood-opacity="0" result="BackgroundImageFix"/>
<feGaussianBlur in="BackgroundImageFix" stdDeviation="4"/>
<feComposite in2="SourceAlpha" operator="in" result="effect1_backgroundBlur_2265_395199"/>
<feColorMatrix in="SourceAlpha" type="matrix" values="0 0 0 0 0 0 0 0 0 0 0 0 0 0 0 0 0 0 127 0" result="hardAlpha"/>
<feOffset dy="2"/>
<feGaussianBlur stdDeviation="1.5"/>
<feColorMatrix type="matrix" values="0 0 0 0 0 0 0 0 0 0 0 0 0 0 0 0 0 0 0.02 0"/>
<feBlend mode="normal" in2="effect1_backgroundBlur_2265_395199" result="effect2_dropShadow_2265_395199"/>
<feBlend mode="normal" in="SourceGraphic" in2="effect2_dropShadow_2265_395199" result="shape"/>
</filter>
<linearGradient id="paint0_linear_2265_395199" x1="22.3294" y1="4" x2="9.48548" y2="26.2537" gradientUnits="userSpaceOnUse">
<stop offset="0.0794937" stop-color="#FF73A5"/>
<stop offset="1" stop-color="#E51C70"/>
</linearGradient>
<linearGradient id="paint1_linear_2265_395199" x1="7.59733" y1="7.4375" x2="7.59733" y2="16.7544" gradientUnits="userSpaceOnUse">
<stop stop-color="white"/>
<stop offset="1" stop-color="white" stop-opacity="0.4"/>
</linearGradient>
<linearGradient id="paint2_linear_2265_395199" x1="21.4996" y1="4.85156" x2="21.4996" y2="19.0517" gradientUnits="userSpaceOnUse">
<stop stop-color="white"/>
<stop offset="1" stop-color="white" stop-opacity="0.4"/>
</linearGradient>
<linearGradient id="paint3_linear_2265_395199" x1="13.0902" y1="20.2812" x2="13.0902" y2="28.0005" gradientUnits="userSpaceOnUse">
<stop stop-color="white"/>
<stop offset="1" stop-color="white" stop-opacity="0.4"/>
</linearGradient>
<linearGradient id="paint4_linear_2265_395199" x1="24" y1="2.17978" x2="24" y2="36" gradientUnits="userSpaceOnUse">
<stop stop-color="white"/>
<stop offset="1" stop-color="white" stop-opacity="0.4"/>
</linearGradient>
<linearGradient id="paint5_linear_2265_395199" x1="24" y1="2.17978" x2="24" y2="36" gradientUnits="userSpaceOnUse">
<stop stop-color="white"/>
<stop offset="1" stop-color="white" stop-opacity="0.4"/>
</linearGradient>
<linearGradient id="paint6_linear_2265_395199" x1="24" y1="-4.04119" x2="24" y2="33" gradientUnits="userSpaceOnUse">
<stop stop-color="white"/>
<stop offset="1" stop-color="white" stop-opacity="0.4"/>
</linearGradient>
<linearGradient id="paint7_linear_2265_395199" x1="24" y1="-4.04119" x2="24" y2="33" gradientUnits="userSpaceOnUse">
<stop stop-color="white"/>
<stop offset="1" stop-color="white" stop-opacity="0.4"/>
</linearGradient>
<clipPath id="clip0_2265_395199">
<rect width="40" height="40" fill="white"/>
</clipPath>
</defs>
</svg>
