<svg width="40" height="40" viewBox="0 0 40 40" fill="none" xmlns="http://www.w3.org/2000/svg">
<g clip-path="url(#clip0_4735_435799)">
<circle cx="14" cy="16" r="12" fill="url(#paint0_linear_4735_435799)"/>
<g opacity="0.3" filter="url(#filter0_bd_4735_435799)">
<path d="M13.0923 14.9126C12.9328 15.442 12.6075 15.9061 12.1643 16.2366C11.7197 16.5668 11.182 16.7474 10.6283 16.7526C9.26025 16.7686 7.28423 16.5486 5.69221 15.4086C5.0282 14.9366 3.87619 15.0726 2.61217 15.7766L2.60817 15.7806L2.00417 16.1086C2.00084 16.0727 1.9995 16.0367 2.00017 16.0006C1.9994 14.4049 2.31787 12.8252 2.93682 11.3544C3.55577 9.88362 4.46269 8.55152 5.60421 7.43652L5.83221 7.88053C7.54823 9.81255 9.39625 11.0926 11.3363 11.6846C11.9946 11.8837 12.5481 12.3341 12.8767 12.9382C13.2054 13.5424 13.2828 14.2517 13.0923 14.9126Z" fill="url(#paint1_linear_4735_435799)"/>
</g>
<g opacity="0.3" filter="url(#filter1_bd_4735_435799)">
<path d="M26.001 15.9997C26.0026 17.0299 25.8695 18.056 25.605 19.0517L25.165 18.8477C25.141 18.8357 25.125 18.8237 25.105 18.8117C24.596 18.4623 24.0433 18.1812 23.461 17.9757C22.8807 17.7528 22.262 17.6473 21.6406 17.6651C21.0192 17.683 20.4075 17.8239 19.841 18.0797C19.5884 18.1888 19.3161 18.2446 19.041 18.2437C18.5858 18.2425 18.144 18.0897 17.7854 17.8093C17.4268 17.529 17.1719 17.1371 17.0609 16.6957C16.9787 16.3584 16.9825 16.0058 17.072 15.6704C17.1614 15.3349 17.3337 15.0273 17.573 14.7757C18.121 14.1997 18.621 13.1997 17.625 10.5396C17.1009 9.14361 17.2729 7.33559 18.137 5.15957C18.1615 5.09621 18.203 5.04084 18.257 4.99956L18.437 4.85156C20.6675 5.74111 22.5802 7.27862 23.9285 9.26572C25.2768 11.2528 25.9987 13.5984 26.001 15.9997Z" fill="url(#paint2_linear_4735_435799)" fill-opacity="0.9"/>
</g>
<g opacity="0.3" filter="url(#filter2_bd_4735_435799)">
<path d="M20.6003 26.0155C18.3067 27.5317 15.5609 28.2118 12.8247 27.9416C10.0885 27.6713 7.52888 26.4671 5.57617 24.5315L5.68817 24.2835C5.70447 24.2514 5.72319 24.2207 5.74417 24.1915C6.42617 23.4651 7.32627 22.9806 8.3082 22.8115C10.4282 22.3195 11.2762 21.7915 11.6082 21.4355C12.2724 20.7492 13.1711 20.3387 14.1247 20.286C15.0783 20.2334 16.0166 20.5424 16.7523 21.1515C18.2567 22.3926 19.4659 23.953 20.2923 25.7195C20.3963 25.8235 20.5003 25.9195 20.6003 26.0155Z" fill="url(#paint3_linear_4735_435799)" fill-opacity="0.9"/>
</g>
<g filter="url(#filter3_bd_4735_435799)">
<path d="M36.0492 24.1654C35.6399 23.721 35.4639 23.1157 35.4953 22.5123C35.5168 22.0989 35.5152 21.6772 35.4906 21.2649C35.4575 20.71 35.5994 20.1515 35.9469 19.7175L36.9916 18.4126C37.5116 17.7631 37.5752 16.8596 37.1513 16.1437L35.65 13.6079C35.2378 12.9117 34.4468 12.5324 33.6459 12.6469L31.932 12.892C31.3835 12.9704 30.8337 12.8072 30.3684 12.5065C29.9559 12.2399 29.5348 12.0184 29.09 11.8129C28.6083 11.5903 28.2158 11.2072 28.0126 10.717L27.3981 9.23429C27.0885 8.48712 26.3593 8 25.5505 8H22.4694C21.6506 8 20.9145 8.49904 20.6114 9.25963L20.0188 10.7469C19.798 11.301 19.3355 11.719 18.8039 11.9896C18.6006 12.0931 18.4019 12.2057 18.2268 12.3184C18.0013 12.4635 17.7757 12.6087 17.5502 12.7538C17.1486 13.0122 16.6678 13.1184 16.1948 13.0532L14.2035 12.7786C13.4057 12.6686 12.6197 13.0479 12.2093 13.7409L10.7043 16.283C10.2805 16.9989 10.3441 17.9024 10.864 18.5519L11.9088 19.8568C12.2562 20.2908 12.3981 20.8493 12.365 21.4042C12.3385 21.85 12.3388 22.3068 12.3661 22.7523C12.3994 23.297 12.2642 23.8457 11.9293 24.2767L11.5876 24.7164L11.004 25.4488C10.4864 26.0981 10.424 26.9997 10.847 27.7142L12.35 30.2528C12.7622 30.949 13.5532 31.3283 14.3541 31.2138L16.068 30.9687C16.6165 30.8903 17.1663 31.0535 17.6316 31.3542C18.0396 31.6178 18.456 31.8374 18.8954 32.0411C19.3855 32.2681 19.7829 32.6612 19.9829 33.1629L20.6114 34.7404C20.9145 35.501 21.6506 36 22.4694 36H25.5306C26.3494 36 27.0855 35.501 27.3886 34.7404L27.9812 33.2531C28.202 32.699 28.6645 32.2811 29.1961 32.0104C29.3994 31.907 29.5981 31.7943 29.7732 31.6816C29.9987 31.5365 30.2243 31.3913 30.4498 31.2462C30.8514 30.9878 31.3322 30.8816 31.8052 30.9469L33.7965 31.2214C34.5943 31.3314 35.3803 30.9521 35.7907 30.2591L37.2973 27.7142C37.7204 26.9997 37.6579 26.0981 37.1404 25.4488L36.5567 24.7164L36.0492 24.1654ZM24 26.1095C21.5464 26.1095 19.6701 24.2985 19.6701 21.9303C19.6701 19.5622 21.5464 17.7512 24 17.7512C26.4536 17.7512 28.3299 19.5622 28.3299 21.9303C28.3299 24.2985 26.4536 26.1095 24 26.1095Z" fill="url(#paint4_linear_4735_435799)" fill-opacity="0.9"/>
<path d="M11.9786 25.028L11.9787 25.0281L11.9824 25.0232L12.3241 24.5835C12.7464 24.04 12.9045 23.3653 12.8651 22.7217C12.8391 22.2963 12.8388 21.8597 12.8641 21.434C12.9032 20.7785 12.7372 20.0916 12.2991 19.5443L11.2544 18.2394C10.8644 17.7523 10.8167 17.0746 11.1346 16.5377L12.6396 13.9957C12.9473 13.4759 13.5368 13.1914 14.1352 13.2739L16.1265 13.5485C16.7178 13.63 17.3187 13.4973 17.8207 13.1743L18.4974 12.7389C18.6562 12.6367 18.84 12.5322 19.0307 12.4352C19.6361 12.127 20.205 11.6303 20.4833 10.9319L21.0759 9.44472C21.3032 8.87428 21.8553 8.5 22.4694 8.5H25.5505C26.1571 8.5 26.704 8.86534 26.9362 9.42571L27.5507 10.9084C27.8065 11.5256 28.2957 11.9967 28.8803 12.2668C29.3098 12.4652 29.7091 12.6758 30.097 12.9265C30.6396 13.2772 31.3094 13.4861 32.0027 13.387L33.7167 13.1419C34.3174 13.056 34.9106 13.3405 35.2198 13.8626L36.7211 16.3984C37.039 16.9353 36.9913 17.613 36.6013 18.1001L35.5565 19.405C35.1184 19.9523 34.9524 20.6392 34.9915 21.2947C35.015 21.6883 35.0165 22.0914 34.996 22.4864C34.959 23.1988 35.1652 23.9436 35.6814 24.5041L36.1768 25.042L36.7494 25.7604C37.1375 26.2474 37.1844 26.9236 36.8671 27.4595L35.3604 30.0043C35.0527 30.5241 34.4632 30.8086 33.8648 30.7261L31.8735 30.4515C31.2822 30.37 30.6813 30.5027 30.1793 30.8257L29.5026 31.2611C29.3438 31.3633 29.16 31.4678 28.9693 31.5648C28.3639 31.873 27.795 32.3697 27.5167 33.0681L26.9241 34.5553C26.6968 35.1257 26.1447 35.5 25.5306 35.5H22.4694C21.8553 35.5 21.3032 35.1257 21.0759 34.5553L20.4473 32.9778C20.1956 32.3461 19.7001 31.8629 19.1056 31.5874C18.6815 31.3909 18.2866 31.1822 17.903 30.9342C17.3604 30.5835 16.6906 30.3746 15.9973 30.4737L14.2833 30.7188C13.6826 30.8047 13.0894 30.5203 12.7802 29.9981L11.2772 27.4595C10.96 26.9236 11.0068 26.2474 11.395 25.7604L11.9786 25.028ZM19.1701 21.9303C19.1701 24.5912 21.2871 26.6095 24 26.6095C26.7129 26.6095 28.8299 24.5912 28.8299 21.9303C28.8299 19.2695 26.7129 17.2512 24 17.2512C21.2871 17.2512 19.1701 19.2695 19.1701 21.9303Z" stroke="url(#paint5_linear_4735_435799)" stroke-opacity="0.2"/>
</g>
<path fill-rule="evenodd" clip-rule="evenodd" d="M24 18C21.7909 18 20 19.7909 20 22C20 24.2091 21.7909 26 24 26C26.2091 26 28 24.2091 28 22C28 19.7909 26.2091 18 24 18ZM18 22C18 18.6863 20.6863 16 24 16C27.3137 16 30 18.6863 30 22C30 25.3137 27.3137 28 24 28C20.6863 28 18 25.3137 18 22Z" fill="url(#paint6_linear_4735_435799)"/>
</g>
<defs>
<filter id="filter0_bd_4735_435799" x="-2" y="3.43652" width="19.1943" height="18.3174" filterUnits="userSpaceOnUse" color-interpolation-filters="sRGB">
<feFlood flood-opacity="0" result="BackgroundImageFix"/>
<feGaussianBlur in="BackgroundImageFix" stdDeviation="2"/>
<feComposite in2="SourceAlpha" operator="in" result="effect1_backgroundBlur_4735_435799"/>
<feColorMatrix in="SourceAlpha" type="matrix" values="0 0 0 0 0 0 0 0 0 0 0 0 0 0 0 0 0 0 127 0" result="hardAlpha"/>
<feOffset dy="2"/>
<feGaussianBlur stdDeviation="1.5"/>
<feColorMatrix type="matrix" values="0 0 0 0 0 0 0 0 0 0 0 0 0 0 0 0 0 0 0.02 0"/>
<feBlend mode="normal" in2="effect1_backgroundBlur_4735_435799" result="effect2_dropShadow_4735_435799"/>
<feBlend mode="normal" in="SourceGraphic" in2="effect2_dropShadow_4735_435799" result="shape"/>
</filter>
<filter id="filter1_bd_4735_435799" x="13.002" y="0.851562" width="16.999" height="23.2002" filterUnits="userSpaceOnUse" color-interpolation-filters="sRGB">
<feFlood flood-opacity="0" result="BackgroundImageFix"/>
<feGaussianBlur in="BackgroundImageFix" stdDeviation="2"/>
<feComposite in2="SourceAlpha" operator="in" result="effect1_backgroundBlur_4735_435799"/>
<feColorMatrix in="SourceAlpha" type="matrix" values="0 0 0 0 0 0 0 0 0 0 0 0 0 0 0 0 0 0 127 0" result="hardAlpha"/>
<feOffset dy="2"/>
<feGaussianBlur stdDeviation="1.5"/>
<feColorMatrix type="matrix" values="0 0 0 0 0 0 0 0 0 0 0 0 0 0 0 0 0 0 0.02 0"/>
<feBlend mode="normal" in2="effect1_backgroundBlur_4735_435799" result="effect2_dropShadow_4735_435799"/>
<feBlend mode="normal" in="SourceGraphic" in2="effect2_dropShadow_4735_435799" result="shape"/>
</filter>
<filter id="filter2_bd_4735_435799" x="1.57617" y="16.2803" width="23.0244" height="16.7197" filterUnits="userSpaceOnUse" color-interpolation-filters="sRGB">
<feFlood flood-opacity="0" result="BackgroundImageFix"/>
<feGaussianBlur in="BackgroundImageFix" stdDeviation="2"/>
<feComposite in2="SourceAlpha" operator="in" result="effect1_backgroundBlur_4735_435799"/>
<feColorMatrix in="SourceAlpha" type="matrix" values="0 0 0 0 0 0 0 0 0 0 0 0 0 0 0 0 0 0 127 0" result="hardAlpha"/>
<feOffset dy="2"/>
<feGaussianBlur stdDeviation="1.5"/>
<feColorMatrix type="matrix" values="0 0 0 0 0 0 0 0 0 0 0 0 0 0 0 0 0 0 0.02 0"/>
<feBlend mode="normal" in2="effect1_backgroundBlur_4735_435799" result="effect2_dropShadow_4735_435799"/>
<feBlend mode="normal" in="SourceGraphic" in2="effect2_dropShadow_4735_435799" result="shape"/>
</filter>
<filter id="filter3_bd_4735_435799" x="6.42578" y="4" width="35.1504" height="37" filterUnits="userSpaceOnUse" color-interpolation-filters="sRGB">
<feFlood flood-opacity="0" result="BackgroundImageFix"/>
<feGaussianBlur in="BackgroundImageFix" stdDeviation="2"/>
<feComposite in2="SourceAlpha" operator="in" result="effect1_backgroundBlur_4735_435799"/>
<feColorMatrix in="SourceAlpha" type="matrix" values="0 0 0 0 0 0 0 0 0 0 0 0 0 0 0 0 0 0 127 0" result="hardAlpha"/>
<feOffset dy="2"/>
<feGaussianBlur stdDeviation="1.5"/>
<feColorMatrix type="matrix" values="0 0 0 0 0 0 0 0 0 0 0 0 0 0 0 0 0 0 0.02 0"/>
<feBlend mode="normal" in2="effect1_backgroundBlur_4735_435799" result="effect2_dropShadow_4735_435799"/>
<feBlend mode="normal" in="SourceGraphic" in2="effect2_dropShadow_4735_435799" result="shape"/>
</filter>
<linearGradient id="paint0_linear_4735_435799" x1="18.5" y1="4" x2="8.5" y2="26" gradientUnits="userSpaceOnUse">
<stop stop-color="#39C4FF"/>
<stop offset="0.908412" stop-color="#0066FF"/>
</linearGradient>
<linearGradient id="paint1_linear_4735_435799" x1="7.59733" y1="7.43652" x2="7.59733" y2="16.7534" gradientUnits="userSpaceOnUse">
<stop stop-color="white"/>
<stop offset="1" stop-color="white" stop-opacity="0.4"/>
</linearGradient>
<linearGradient id="paint2_linear_4735_435799" x1="21.5015" y1="4.85156" x2="21.5015" y2="19.0517" gradientUnits="userSpaceOnUse">
<stop stop-color="white"/>
<stop offset="1" stop-color="white" stop-opacity="0.4"/>
</linearGradient>
<linearGradient id="paint3_linear_4735_435799" x1="13.0883" y1="20.2803" x2="13.0883" y2="27.9996" gradientUnits="userSpaceOnUse">
<stop stop-color="white"/>
<stop offset="1" stop-color="white" stop-opacity="0.4"/>
</linearGradient>
<linearGradient id="paint4_linear_4735_435799" x1="24" y1="8" x2="24" y2="36" gradientUnits="userSpaceOnUse">
<stop stop-color="white"/>
<stop offset="1" stop-color="white" stop-opacity="0.4"/>
</linearGradient>
<linearGradient id="paint5_linear_4735_435799" x1="24" y1="8" x2="24" y2="36" gradientUnits="userSpaceOnUse">
<stop stop-color="white"/>
<stop offset="1" stop-color="white" stop-opacity="0.4"/>
</linearGradient>
<linearGradient id="paint6_linear_4735_435799" x1="24" y1="17" x2="24" y2="27" gradientUnits="userSpaceOnUse">
<stop stop-color="white"/>
<stop offset="1" stop-color="white" stop-opacity="0.6"/>
</linearGradient>
<clipPath id="clip0_4735_435799">
<rect width="40" height="40" fill="white"/>
</clipPath>
</defs>
</svg>
