<svg width="40" height="40" viewBox="0 0 40 40" fill="none" xmlns="http://www.w3.org/2000/svg">
<g clip-path="url(#clip0_2265_392500)">
<path fill-rule="evenodd" clip-rule="evenodd" d="M2 16C2 22.6274 7.37258 28 14 28H28C32.4183 28 36 24.4183 36 20C36 15.5817 32.4183 12 28 12C27.1102 12 26.2543 12.1453 25.4548 12.4134C23.9298 7.53794 19.3781 4 14 4C7.37258 4 2 9.37258 2 16Z" fill="url(#paint0_linear_2265_392500)"/>
<g filter="url(#filter0_bd_2265_392500)">
<path d="M12 13C12 11.8954 12.8954 11 14 11H20.4384C21.3562 11 22.1561 11.6246 22.3787 12.5149L22.6213 13.4851C22.8439 14.3754 23.6438 15 24.5616 15H34C35.1046 15 36 15.8954 36 17V34C36 35.1046 35.1046 36 34 36H14C12.8954 36 12 35.1046 12 34V13Z" fill="url(#paint1_linear_2265_392500)" fill-opacity="0.8"/>
<path d="M12.5 13C12.5 12.1716 13.1716 11.5 14 11.5H20.4384C21.1267 11.5 21.7267 11.9684 21.8937 12.6362L22.1362 13.6063C22.4144 14.7193 23.4144 15.5 24.5616 15.5H34C34.8284 15.5 35.5 16.1716 35.5 17V34C35.5 34.8284 34.8284 35.5 34 35.5H14C13.1716 35.5 12.5 34.8284 12.5 34V13Z" stroke="url(#paint2_linear_2265_392500)" stroke-opacity="0.2"/>
</g>
<g filter="url(#filter1_bd_2265_392500)">
<path d="M10.2628 21.2337C10.1229 20.0447 11.0519 19 12.2491 19H35.7509C36.9481 19 37.8771 20.0447 37.7372 21.2337L36.2078 34.2337C36.0893 35.2409 35.2357 36 34.2215 36H13.7785C12.7643 36 11.9107 35.2409 11.7922 34.2337L10.2628 21.2337Z" fill="url(#paint3_linear_2265_392500)" fill-opacity="0.9"/>
<path d="M10.7594 21.1753C10.6545 20.2835 11.3512 19.5 12.2491 19.5H35.7509C36.6488 19.5 37.3455 20.2835 37.2406 21.1753L35.7112 34.1753C35.6224 34.9307 34.9821 35.5 34.2215 35.5H13.7785C13.0179 35.5 12.3776 34.9307 12.2888 34.1753L10.7594 21.1753Z" stroke="url(#paint4_linear_2265_392500)" stroke-opacity="0.2"/>
</g>
</g>
<defs>
<filter id="filter0_bd_2265_392500" x="4" y="3" width="40" height="41" filterUnits="userSpaceOnUse" color-interpolation-filters="sRGB">
<feFlood flood-opacity="0" result="BackgroundImageFix"/>
<feGaussianBlur in="BackgroundImageFix" stdDeviation="4"/>
<feComposite in2="SourceAlpha" operator="in" result="effect1_backgroundBlur_2265_392500"/>
<feColorMatrix in="SourceAlpha" type="matrix" values="0 0 0 0 0 0 0 0 0 0 0 0 0 0 0 0 0 0 127 0" result="hardAlpha"/>
<feOffset dy="2"/>
<feGaussianBlur stdDeviation="1.5"/>
<feColorMatrix type="matrix" values="0 0 0 0 0 0 0 0 0 0 0 0 0 0 0 0 0 0 0.02 0"/>
<feBlend mode="normal" in2="effect1_backgroundBlur_2265_392500" result="effect2_dropShadow_2265_392500"/>
<feBlend mode="normal" in="SourceGraphic" in2="effect2_dropShadow_2265_392500" result="shape"/>
</filter>
<filter id="filter1_bd_2265_392500" x="2.25" y="11" width="43.5" height="33" filterUnits="userSpaceOnUse" color-interpolation-filters="sRGB">
<feFlood flood-opacity="0" result="BackgroundImageFix"/>
<feGaussianBlur in="BackgroundImageFix" stdDeviation="4"/>
<feComposite in2="SourceAlpha" operator="in" result="effect1_backgroundBlur_2265_392500"/>
<feColorMatrix in="SourceAlpha" type="matrix" values="0 0 0 0 0 0 0 0 0 0 0 0 0 0 0 0 0 0 127 0" result="hardAlpha"/>
<feOffset dy="2"/>
<feGaussianBlur stdDeviation="1.5"/>
<feColorMatrix type="matrix" values="0 0 0 0 0 0 0 0 0 0 0 0 0 0 0 0 0 0 0.02 0"/>
<feBlend mode="normal" in2="effect1_backgroundBlur_2265_392500" result="effect2_dropShadow_2265_392500"/>
<feBlend mode="normal" in="SourceGraphic" in2="effect2_dropShadow_2265_392500" result="shape"/>
</filter>
<linearGradient id="paint0_linear_2265_392500" x1="30.8" y1="4" x2="20.4341" y2="29.4435" gradientUnits="userSpaceOnUse">
<stop offset="0.17707" stop-color="#FBEB4F"/>
<stop offset="0.864598" stop-color="#DB5B3B"/>
</linearGradient>
<linearGradient id="paint1_linear_2265_392500" x1="26" y1="8" x2="26" y2="36" gradientUnits="userSpaceOnUse">
<stop stop-color="white"/>
<stop offset="1" stop-color="white" stop-opacity="0.4"/>
</linearGradient>
<linearGradient id="paint2_linear_2265_392500" x1="26" y1="8" x2="26" y2="36" gradientUnits="userSpaceOnUse">
<stop stop-color="white"/>
<stop offset="1" stop-color="white" stop-opacity="0.4"/>
</linearGradient>
<linearGradient id="paint3_linear_2265_392500" x1="24" y1="16.6154" x2="24" y2="36" gradientUnits="userSpaceOnUse">
<stop stop-color="white"/>
<stop offset="1" stop-color="white" stop-opacity="0.4"/>
</linearGradient>
<linearGradient id="paint4_linear_2265_392500" x1="24" y1="16.6154" x2="24" y2="36" gradientUnits="userSpaceOnUse">
<stop stop-color="white"/>
<stop offset="1" stop-color="white" stop-opacity="0.4"/>
</linearGradient>
<clipPath id="clip0_2265_392500">
<rect width="40" height="40" fill="white"/>
</clipPath>
</defs>
</svg>
