<svg width="80" height="80" viewBox="0 0 80 80" fill="none" xmlns="http://www.w3.org/2000/svg">
<g clip-path="url(#clip0_6985_442400)">
<circle cx="28" cy="32" r="24" fill="url(#paint0_linear_6985_442400)"/>
<circle cx="48" cy="44" r="28" fill="#FFE074"/>
<circle cx="48" cy="44" r="28" fill="url(#paint1_radial_6985_442400)" fill-opacity="0.6"/>
<circle cx="48" cy="44" r="27.5" stroke="url(#paint2_linear_6985_442400)" stroke-opacity="0.2"/>
<path opacity="0.6" d="M45.882 41.4623C45.5098 42.6975 44.7507 43.7804 43.7167 44.5517C42.6794 45.3221 41.4246 45.7436 40.1326 45.7557C36.9406 45.7931 32.3299 45.2797 28.6152 42.6197C27.0658 41.5183 24.3778 41.8357 21.4284 43.4784L21.4191 43.4877L20.0097 44.253C20.002 44.1693 19.9988 44.0851 20.0004 44.001C19.9986 40.2777 20.7417 36.5917 22.1859 33.1598C23.6301 29.728 25.7463 26.6198 28.4098 24.0181L28.9418 25.0541C32.9459 29.5622 37.2579 32.5489 41.7846 33.9302C43.3208 34.3948 44.6121 35.4457 45.379 36.8555C46.1459 38.2652 46.3266 39.9203 45.882 41.4623Z" fill="url(#paint3_linear_6985_442400)"/>
<path opacity="0.5" d="M76.0016 43.9993C76.0051 46.4032 75.6945 48.7973 75.0775 51.1207L74.0509 50.6447C73.9949 50.6167 73.9575 50.5887 73.9109 50.5607C72.7231 49.7453 71.4334 49.0895 70.0748 48.61C68.7208 48.09 67.277 47.8436 65.8271 47.8853C64.3772 47.927 62.95 48.2558 61.6281 48.8527C61.0387 49.1072 60.4033 49.2374 59.7614 49.2354C58.6993 49.2326 57.6685 48.876 56.8318 48.2218C55.9951 47.5677 55.4002 46.6533 55.1413 45.6233C54.9494 44.8363 54.9583 44.0136 55.167 43.2309C55.3758 42.4481 55.7777 41.7303 56.336 41.1433C57.6147 39.7993 58.7814 37.4659 56.4573 31.2592C55.2347 28.0018 55.636 23.7831 57.652 18.7057C57.7092 18.5578 57.8061 18.4287 57.932 18.3323L58.352 17.987C63.5565 20.0626 68.0197 23.6501 71.1656 28.2867C74.3116 32.9233 75.996 38.3962 76.0016 43.9993Z" fill="url(#paint4_linear_6985_442400)"/>
<path opacity="0.5" d="M63.4008 67.3709C58.0489 70.9087 51.6421 72.4957 45.2577 71.8651C38.8733 71.2345 32.9007 68.4247 28.3444 63.9082L28.6057 63.3296C28.6437 63.2548 28.6874 63.183 28.7364 63.1149C30.3277 61.4199 32.4279 60.2895 34.7191 59.8948C39.6659 58.7468 41.6446 57.5148 42.4192 56.6841C43.969 55.0828 46.0658 54.125 48.2909 54.0022C50.5159 53.8793 52.7054 54.6004 54.422 56.0215C57.9323 58.9174 60.7539 62.5584 62.6821 66.6803C62.9248 66.9229 63.1675 67.1469 63.4008 67.3709Z" fill="url(#paint5_linear_6985_442400)"/>
</g>
<defs>
<linearGradient id="paint0_linear_6985_442400" x1="44.6588" y1="8" x2="18.971" y2="52.5073" gradientUnits="userSpaceOnUse">
<stop offset="0.17707" stop-color="#FEC022"/>
<stop offset="0.864598" stop-color="#FF6D2F"/>
</linearGradient>
<radialGradient id="paint1_radial_6985_442400" cx="0" cy="0" r="1" gradientUnits="userSpaceOnUse" gradientTransform="translate(20 24) rotate(41.9059) scale(52.4023 43.0652)">
<stop offset="0.53036" stop-color="#F19325"/>
<stop offset="1" stop-color="#F38A23" stop-opacity="0"/>
</radialGradient>
<linearGradient id="paint2_linear_6985_442400" x1="48" y1="16" x2="48" y2="72" gradientUnits="userSpaceOnUse">
<stop stop-color="white"/>
<stop offset="1" stop-color="white" stop-opacity="0.4"/>
</linearGradient>
<linearGradient id="paint3_linear_6985_442400" x1="33.0604" y1="24.0181" x2="33.0604" y2="45.7576" gradientUnits="userSpaceOnUse">
<stop stop-color="white"/>
<stop offset="1" stop-color="white" stop-opacity="0.4"/>
</linearGradient>
<linearGradient id="paint4_linear_6985_442400" x1="65.5026" y1="17.987" x2="65.5026" y2="51.1207" gradientUnits="userSpaceOnUse">
<stop stop-color="white"/>
<stop offset="1" stop-color="white" stop-opacity="0.4"/>
</linearGradient>
<linearGradient id="paint5_linear_6985_442400" x1="45.8726" y1="53.9887" x2="45.8726" y2="72.0004" gradientUnits="userSpaceOnUse">
<stop stop-color="white"/>
<stop offset="1" stop-color="white" stop-opacity="0.4"/>
</linearGradient>
<clipPath id="clip0_6985_442400">
<rect width="80" height="80" fill="white"/>
</clipPath>
</defs>
</svg>
