<svg width="80" height="80" viewBox="0 0 80 80" fill="none" xmlns="http://www.w3.org/2000/svg">
<path d="M52 32C52 45.2548 41.2548 56 28 56C14.7452 56 4 45.2548 4 32C4 18.7452 14.7452 8 28 8C41.2548 8 52 18.7452 52 32Z" fill="url(#paint0_linear_6985_442272)"/>
<g opacity="0.3" filter="url(#filter0_bd_6985_442272)">
<path d="M26.1846 29.826C25.8655 30.8847 25.2149 31.8129 24.3286 32.474C23.4395 33.1343 22.3639 33.4956 21.2565 33.506C18.5205 33.538 14.5685 33.098 11.3844 30.818C10.0564 29.874 7.75237 30.146 5.22435 31.554L5.21635 31.562L4.00833 32.218C4.00167 32.1462 3.999 32.0741 4.00033 32.002C3.9988 28.8106 4.63573 25.6511 5.87363 22.7095C7.11153 19.768 8.92538 17.1038 11.2084 14.8738L11.6644 15.7618C15.0965 19.6258 18.7925 22.1859 22.6725 23.3699C23.9892 23.768 25.0961 24.6688 25.7534 25.8772C26.4108 27.0856 26.5657 28.5042 26.1846 29.826Z" fill="url(#paint1_linear_6985_442272)"/>
</g>
<g opacity="0.3" filter="url(#filter1_bd_6985_442272)">
<path d="M52.0019 31.9988C52.005 34.0593 51.7387 36.1113 51.2099 38.1028L50.3299 37.6948C50.2819 37.6708 50.2499 37.6468 50.2099 37.6228C49.1918 36.9239 48.0864 36.3618 46.9219 35.9508C45.7613 35.5051 44.5238 35.2939 43.281 35.3296C42.0382 35.3653 40.8149 35.6472 39.6818 36.1588C39.1767 36.3769 38.632 36.4886 38.0818 36.4868C37.1715 36.4845 36.2879 36.1788 35.5707 35.6181C34.8535 35.0574 34.3437 34.2737 34.1217 33.3908C33.9573 32.7162 33.9649 32.011 34.1438 31.3401C34.3227 30.6692 34.6672 30.0539 35.1458 29.5507C36.2418 28.3987 37.2418 26.3987 35.2498 21.0786C34.2017 18.2866 34.5457 14.6706 36.2738 10.3185C36.3228 10.1918 36.4058 10.0811 36.5138 9.99852L36.8738 9.70251C41.3348 11.4816 45.1603 14.5566 47.8568 18.5308C50.5534 22.5051 51.9972 27.1961 52.0019 31.9988Z" fill="url(#paint2_linear_6985_442272)" fill-opacity="0.9"/>
</g>
<g opacity="0.3" filter="url(#filter2_bd_6985_442272)">
<path d="M41.2015 52.0318C36.6142 55.0641 31.1226 56.4244 25.6502 55.8839C20.1779 55.3434 15.0586 52.935 11.1531 49.0637L11.3771 48.5677C11.4097 48.5036 11.4472 48.4421 11.4891 48.3837C12.8531 46.9309 14.6533 45.962 16.6172 45.6237C20.8572 44.6397 22.5533 43.5837 23.2173 42.8717C24.5456 41.4991 26.3429 40.6781 28.2501 40.5728C30.1573 40.4675 32.034 41.0856 33.5054 42.3036C36.5142 44.7859 38.9327 47.9067 40.5855 51.4397C40.7935 51.6478 41.0015 51.8398 41.2015 52.0318Z" fill="url(#paint3_linear_6985_442272)" fill-opacity="0.9"/>
</g>
<path opacity="0.3" d="M26.1846 29.826C25.8655 30.8847 25.2149 31.8129 24.3286 32.474C23.4395 33.1343 22.3639 33.4956 21.2565 33.506C18.5205 33.538 14.5685 33.098 11.3844 30.818C10.0564 29.874 7.75237 30.146 5.22435 31.554L5.21635 31.562L4.00833 32.218C4.00167 32.1462 3.999 32.0741 4.00033 32.002C3.9988 28.8106 4.63573 25.6511 5.87363 22.7095C7.11153 19.768 8.92538 17.1038 11.2084 14.8738L11.6644 15.7618C15.0965 19.6258 18.7925 22.1859 22.6725 23.3699C23.9892 23.768 25.0961 24.6688 25.7534 25.8772C26.4108 27.0856 26.5657 28.5042 26.1846 29.826Z" fill="url(#paint4_linear_6985_442272)"/>
<path opacity="0.3" d="M52.0019 31.9988C52.005 34.0593 51.7387 36.1113 51.2099 38.1028L50.3299 37.6948C50.2819 37.6708 50.2499 37.6468 50.2099 37.6228C49.1918 36.9239 48.0864 36.3618 46.9219 35.9508C45.7613 35.5051 44.5238 35.2939 43.281 35.3296C42.0382 35.3653 40.8149 35.6472 39.6818 36.1588C39.1767 36.3769 38.632 36.4886 38.0818 36.4868C37.1715 36.4845 36.2879 36.1788 35.5707 35.6181C34.8535 35.0574 34.3437 34.2737 34.1217 33.3908C33.9573 32.7162 33.9649 32.011 34.1438 31.3401C34.3227 30.6692 34.6672 30.0539 35.1458 29.5507C36.2418 28.3987 37.2418 26.3987 35.2498 21.0786C34.2017 18.2866 34.5457 14.6706 36.2738 10.3185C36.3228 10.1918 36.4058 10.0811 36.5138 9.99852L36.8738 9.70251C41.3348 11.4816 45.1603 14.5566 47.8568 18.5308C50.5534 22.5051 51.9972 27.1961 52.0019 31.9988Z" fill="url(#paint5_linear_6985_442272)" fill-opacity="0.9"/>
<path opacity="0.3" d="M41.2015 52.0318C36.6142 55.0641 31.1226 56.4244 25.6502 55.8839C20.1779 55.3434 15.0586 52.935 11.1531 49.0637L11.3771 48.5677C11.4097 48.5036 11.4472 48.4421 11.4891 48.3837C12.8531 46.9309 14.6533 45.962 16.6172 45.6237C20.8572 44.6397 22.5533 43.5837 23.2173 42.8717C24.5456 41.4991 26.3429 40.6781 28.2501 40.5728C30.1573 40.4675 32.034 41.0856 33.5054 42.3036C36.5142 44.7859 38.9327 47.9067 40.5855 51.4397C40.7935 51.6478 41.0015 51.8398 41.2015 52.0318Z" fill="url(#paint6_linear_6985_442272)" fill-opacity="0.9"/>
<path d="M50.8446 37.8433C49.1778 39.1192 46.8222 39.1192 45.1554 37.8433C39.7275 33.6886 33.1585 30.954 25.9934 30.207C23.7961 29.9779 22 31.7908 22 34V59.4047C22 61.6139 23.7953 63.3899 25.9919 63.6254C32.5175 64.3251 39.6668 66.6669 45.5596 70.3448C47.0475 71.2734 48.9526 71.2733 50.4353 70.3365C56.3121 66.6236 63.13 64.3744 70.0956 63.6503C72.2589 63.4254 74 61.6665 74 59.4916V34C74 31.7908 72.2039 29.9779 70.0066 30.207C62.8415 30.954 56.2725 33.6886 50.8446 37.8433Z" fill="#E9C3F7"/>
<path d="M50.8446 37.8433C49.1778 39.1192 46.8222 39.1192 45.1554 37.8433C39.7275 33.6886 33.1585 30.954 25.9934 30.207C23.7961 29.9779 22 31.7908 22 34V59.4047C22 61.6139 23.7953 63.3899 25.9919 63.6254C32.5175 64.3251 39.6668 66.6669 45.5596 70.3448C47.0475 71.2734 48.9526 71.2733 50.4353 70.3365C56.3121 66.6236 63.13 64.3744 70.0956 63.6503C72.2589 63.4254 74 61.6665 74 59.4916V34C74 31.7908 72.2039 29.9779 70.0066 30.207C62.8415 30.954 56.2725 33.6886 50.8446 37.8433Z" fill="url(#paint7_radial_6985_442272)" fill-opacity="0.6"/>
<path fill-rule="evenodd" clip-rule="evenodd" d="M43.9397 39.4315C38.7945 35.4931 32.572 32.9037 25.786 32.1962C24.9086 32.1047 24 32.8324 24 34V59.4047C24 60.4667 24.8953 61.4964 26.2051 61.6368C33.0162 62.3671 40.4571 64.8025 46.6186 68.6482C47.4591 69.1727 48.5375 69.1698 49.3671 68.6457C55.5225 64.7567 62.6392 62.4146 69.8888 61.661C71.1356 61.5314 72 60.5421 72 59.4916V34C72 32.8324 71.0914 32.1047 70.214 32.1962C63.428 32.9037 57.2055 35.4931 52.0603 39.4315C49.676 41.2565 46.324 41.2565 43.9397 39.4315ZM45.1554 37.8433C46.8222 39.1192 49.1778 39.1192 50.8446 37.8433C56.2725 33.6886 62.8415 30.954 70.0066 30.207C72.2039 29.9779 74 31.7908 74 34V59.4916C74 61.6665 72.2589 63.4254 70.0956 63.6503C63.13 64.3744 56.3121 66.6236 50.4353 70.3365C48.9526 71.2733 47.0475 71.2734 45.5596 70.3448C39.6668 66.6669 32.5175 64.3251 25.9919 63.6254C23.7953 63.3899 22 61.6139 22 59.4047V34C22 31.7908 23.7961 29.9779 25.9934 30.207C33.1585 30.954 39.7275 33.6886 45.1554 37.8433Z" fill="url(#paint8_linear_6985_442272)" fill-opacity="0.2"/>
<path d="M50.8653 28.7456C49.1963 30.0611 46.8037 30.0611 45.1347 28.7456C39.1744 24.0473 31.9169 20.9744 23.9938 20.1953C21.7952 19.9791 20 21.7908 20 23.9999V52.7766C20 54.9857 21.7952 56.7557 23.9938 56.9719C31.9199 57.7513 39.1799 60.8263 45.1415 65.5275C46.8074 66.8412 49.1953 66.8441 50.8632 65.5329C56.8239 60.8467 64.0822 57.7572 72.0063 56.9732C74.2047 56.7557 76 54.9857 76 52.7766V23.9999C76 21.7908 74.2048 19.9791 72.0062 20.1953C64.0831 20.9744 56.8256 24.0473 50.8653 28.7456Z" fill="#EDD6F5"/>
<path d="M50.8653 28.7456C49.1963 30.0611 46.8037 30.0611 45.1347 28.7456C39.1744 24.0473 31.9169 20.9744 23.9938 20.1953C21.7952 19.9791 20 21.7908 20 23.9999V52.7766C20 54.9857 21.7952 56.7557 23.9938 56.9719C31.9199 57.7513 39.1799 60.8263 45.1415 65.5275C46.8074 66.8412 49.1953 66.8441 50.8632 65.5329C56.8239 60.8467 64.0822 57.7572 72.0063 56.9732C74.2047 56.7557 76 54.9857 76 52.7766V23.9999C76 21.7908 74.2048 19.9791 72.0062 20.1953C64.0831 20.9744 56.8256 24.0473 50.8653 28.7456Z" fill="url(#paint9_radial_6985_442272)" fill-opacity="0.6"/>
<path fill-rule="evenodd" clip-rule="evenodd" d="M43.8966 30.3163C38.2239 25.8448 31.3251 22.9259 23.798 22.1857C22.9075 22.0981 22 22.8362 22 23.9999V52.7766C22 53.8369 22.8907 54.8538 24.1895 54.9815C32.5118 55.7999 40.1306 59.029 46.3799 63.9571C47.3212 64.6993 48.6862 64.7003 49.6271 63.9606C55.8723 59.0508 63.4876 55.8063 71.8094 54.9829C73.1093 54.8543 74 53.8367 74 52.7766V23.9999C74 22.8362 73.0925 22.0981 72.202 22.1857C64.6749 22.9259 57.7761 25.8448 52.1034 30.3163C49.7083 32.2042 46.2917 32.2042 43.8966 30.3163ZM45.1347 28.7456C46.8037 30.0611 49.1963 30.0611 50.8653 28.7456C56.8256 24.0473 64.0831 20.9744 72.0062 20.1953C74.2048 19.9791 76 21.7908 76 23.9999V52.7766C76 54.9857 74.2047 56.7557 72.0063 56.9732C64.0822 57.7572 56.8239 60.8467 50.8632 65.5329C49.1953 66.8441 46.8074 66.8412 45.1415 65.5275C39.1799 60.8263 31.9199 57.7513 23.9938 56.9719C21.7952 56.7557 20 54.9857 20 52.7766V23.9999C20 21.7908 21.7952 19.9791 23.9938 20.1953C31.9169 20.9744 39.1744 24.0473 45.1347 28.7456Z" fill="url(#paint10_linear_6985_442272)" fill-opacity="0.2"/>
<path opacity="0.2" fill-rule="evenodd" clip-rule="evenodd" d="M48 31C48.5523 31 49 31.4477 49 32V64C49 64.5523 48.5523 65 48 65C47.4477 65 47 64.5523 47 64V32C47 31.4477 47.4477 31 48 31Z" fill="white"/>
<defs>
<filter id="filter0_bd_6985_442272" x="0" y="10.8738" width="30.3893" height="27.6338" filterUnits="userSpaceOnUse" color-interpolation-filters="sRGB">
<feFlood flood-opacity="0" result="BackgroundImageFix"/>
<feGaussianBlur in="BackgroundImageFix" stdDeviation="2"/>
<feComposite in2="SourceAlpha" operator="in" result="effect1_backgroundBlur_6985_442272"/>
<feColorMatrix in="SourceAlpha" type="matrix" values="0 0 0 0 0 0 0 0 0 0 0 0 0 0 0 0 0 0 127 0" result="hardAlpha"/>
<feOffset dy="2"/>
<feGaussianBlur stdDeviation="1.5"/>
<feColorMatrix type="matrix" values="0 0 0 0 0 0 0 0 0 0 0 0 0 0 0 0 0 0 0.02 0"/>
<feBlend mode="normal" in2="effect1_backgroundBlur_6985_442272" result="effect2_dropShadow_6985_442272"/>
<feBlend mode="normal" in="SourceGraphic" in2="effect2_dropShadow_6985_442272" result="shape"/>
</filter>
<filter id="filter1_bd_6985_442272" x="30.0038" y="5.70251" width="25.9982" height="37.4003" filterUnits="userSpaceOnUse" color-interpolation-filters="sRGB">
<feFlood flood-opacity="0" result="BackgroundImageFix"/>
<feGaussianBlur in="BackgroundImageFix" stdDeviation="2"/>
<feComposite in2="SourceAlpha" operator="in" result="effect1_backgroundBlur_6985_442272"/>
<feColorMatrix in="SourceAlpha" type="matrix" values="0 0 0 0 0 0 0 0 0 0 0 0 0 0 0 0 0 0 127 0" result="hardAlpha"/>
<feOffset dy="2"/>
<feGaussianBlur stdDeviation="1.5"/>
<feColorMatrix type="matrix" values="0 0 0 0 0 0 0 0 0 0 0 0 0 0 0 0 0 0 0.02 0"/>
<feBlend mode="normal" in2="effect1_backgroundBlur_6985_442272" result="effect2_dropShadow_6985_442272"/>
<feBlend mode="normal" in="SourceGraphic" in2="effect2_dropShadow_6985_442272" result="shape"/>
</filter>
<filter id="filter2_bd_6985_442272" x="7.15314" y="36.5613" width="38.0483" height="24.4386" filterUnits="userSpaceOnUse" color-interpolation-filters="sRGB">
<feFlood flood-opacity="0" result="BackgroundImageFix"/>
<feGaussianBlur in="BackgroundImageFix" stdDeviation="2"/>
<feComposite in2="SourceAlpha" operator="in" result="effect1_backgroundBlur_6985_442272"/>
<feColorMatrix in="SourceAlpha" type="matrix" values="0 0 0 0 0 0 0 0 0 0 0 0 0 0 0 0 0 0 127 0" result="hardAlpha"/>
<feOffset dy="2"/>
<feGaussianBlur stdDeviation="1.5"/>
<feColorMatrix type="matrix" values="0 0 0 0 0 0 0 0 0 0 0 0 0 0 0 0 0 0 0.02 0"/>
<feBlend mode="normal" in2="effect1_backgroundBlur_6985_442272" result="effect2_dropShadow_6985_442272"/>
<feBlend mode="normal" in="SourceGraphic" in2="effect2_dropShadow_6985_442272" result="shape"/>
</filter>
<linearGradient id="paint0_linear_6985_442272" x1="37" y1="8" x2="17" y2="52" gradientUnits="userSpaceOnUse">
<stop stop-color="#D61AF4"/>
<stop offset="0.908412" stop-color="#AA02E4"/>
</linearGradient>
<linearGradient id="paint1_linear_6985_442272" x1="15.1947" y1="14.8738" x2="15.1947" y2="33.5076" gradientUnits="userSpaceOnUse">
<stop stop-color="white"/>
<stop offset="1" stop-color="white" stop-opacity="0.4"/>
</linearGradient>
<linearGradient id="paint2_linear_6985_442272" x1="43.0029" y1="9.70251" x2="43.0029" y2="38.1028" gradientUnits="userSpaceOnUse">
<stop stop-color="white"/>
<stop offset="1" stop-color="white" stop-opacity="0.4"/>
</linearGradient>
<linearGradient id="paint3_linear_6985_442272" x1="26.1773" y1="40.5613" x2="26.1773" y2="55.9998" gradientUnits="userSpaceOnUse">
<stop stop-color="white"/>
<stop offset="1" stop-color="white" stop-opacity="0.4"/>
</linearGradient>
<linearGradient id="paint4_linear_6985_442272" x1="15.1947" y1="14.8738" x2="15.1947" y2="33.5076" gradientUnits="userSpaceOnUse">
<stop stop-color="white"/>
<stop offset="1" stop-color="white" stop-opacity="0.4"/>
</linearGradient>
<linearGradient id="paint5_linear_6985_442272" x1="43.0029" y1="9.70251" x2="43.0029" y2="38.1028" gradientUnits="userSpaceOnUse">
<stop stop-color="white"/>
<stop offset="1" stop-color="white" stop-opacity="0.4"/>
</linearGradient>
<linearGradient id="paint6_linear_6985_442272" x1="26.1773" y1="40.5613" x2="26.1773" y2="55.9998" gradientUnits="userSpaceOnUse">
<stop stop-color="white"/>
<stop offset="1" stop-color="white" stop-opacity="0.4"/>
</linearGradient>
<radialGradient id="paint7_radial_6985_442272" cx="0" cy="0" r="1" gradientUnits="userSpaceOnUse" gradientTransform="translate(26.6429 30) rotate(45.0887) scale(40.7723 30.8101)">
<stop offset="0.36003" stop-color="#DF52FF"/>
<stop offset="1" stop-color="#DF52FF" stop-opacity="0"/>
</radialGradient>
<linearGradient id="paint8_linear_6985_442272" x1="48" y1="30" x2="48" y2="72" gradientUnits="userSpaceOnUse">
<stop stop-color="white"/>
<stop offset="1" stop-color="white" stop-opacity="0.4"/>
</linearGradient>
<radialGradient id="paint9_radial_6985_442272" cx="0" cy="0" r="1" gradientUnits="userSpaceOnUse" gradientTransform="translate(25 19.9999) rotate(46.7899) scale(45.2769 34.1474)">
<stop offset="0.36003" stop-color="#DF52FF"/>
<stop offset="1" stop-color="#DF52FF" stop-opacity="0"/>
</radialGradient>
<linearGradient id="paint10_linear_6985_442272" x1="48" y1="19.9999" x2="48" y2="67.9999" gradientUnits="userSpaceOnUse">
<stop stop-color="white"/>
<stop offset="1" stop-color="white" stop-opacity="0.4"/>
</linearGradient>
</defs>
</svg>
