<svg width="80" height="80" viewBox="0 0 80 80" fill="none" xmlns="http://www.w3.org/2000/svg">
<g opacity="0.6">
<path d="M50 31C50 43.7025 39.7025 54 27 54C14.2975 54 4 43.7025 4 31C4 18.2975 14.2975 8 27 8C39.7025 8 50 18.2975 50 31Z" fill="url(#paint0_linear_6985_444016)"/>
<path opacity="0.3" d="M25.2602 28.9168C24.9545 29.9314 24.331 30.821 23.4815 31.4545C22.6295 32.0873 21.5988 32.4336 20.5375 32.4435C17.9155 32.4742 14.1281 32.0525 11.0767 29.8675C9.80405 28.9628 7.59603 29.2235 5.17333 30.5728L5.16566 30.5805L4.00798 31.2092C4.0016 31.1404 3.99904 31.0713 4.00032 31.0022C3.99885 27.9437 4.60925 24.9159 5.79557 22.0969C6.98189 19.2779 8.72016 16.7247 10.9081 14.5876L11.3451 15.4387C14.6341 19.1417 18.1761 21.5951 21.8945 22.7297C23.1564 23.1113 24.2171 23.9746 24.847 25.1326C25.477 26.2906 25.6254 27.6501 25.2602 28.9168Z" fill="url(#paint1_linear_6985_444016)"/>
<path opacity="0.3" d="M50.0018 30.9985C50.0047 32.9731 49.7496 34.9397 49.2428 36.8482L48.3995 36.4572C48.3535 36.4342 48.3228 36.4112 48.2845 36.3882C47.3088 35.7184 46.2494 35.1797 45.1334 34.7858C44.0212 34.3587 42.8352 34.1563 41.6442 34.1905C40.4533 34.2247 39.2809 34.4948 38.195 34.9852C37.7109 35.1942 37.1889 35.3012 36.6617 35.2995C35.7893 35.2973 34.9425 35.0043 34.2552 34.467C33.5679 33.9296 33.0793 33.1786 32.8666 32.3325C32.709 31.686 32.7163 31.0102 32.8877 30.3672C33.0592 29.7243 33.3894 29.1346 33.848 28.6524C34.8983 27.5484 35.8566 25.6317 33.9476 20.5333C32.9433 17.8577 33.273 14.3923 34.929 10.2216C34.976 10.1001 35.0555 9.99401 35.159 9.9149L35.504 9.63123C39.7791 11.3362 43.4452 14.2831 46.0294 18.0917C48.6136 21.9003 49.9972 26.3959 50.0018 30.9985Z" fill="url(#paint2_linear_6985_444016)" fill-opacity="0.9"/>
<path opacity="0.3" d="M39.6514 50.1974C35.2552 53.1034 29.9924 54.407 24.7481 53.889C19.5038 53.371 14.5977 51.063 10.855 47.353L11.0697 46.8777C11.1009 46.8162 11.1368 46.7573 11.177 46.7013C12.4842 45.309 14.2094 44.3805 16.0914 44.0563C20.1548 43.1133 21.7802 42.1013 22.4165 41.4189C23.6895 40.1035 25.4119 39.3168 27.2396 39.2159C29.0674 39.115 30.8659 39.7073 32.276 40.8746C35.1594 43.2534 37.4771 46.2442 39.061 49.63C39.2604 49.8294 39.4597 50.0134 39.6514 50.1974Z" fill="url(#paint3_linear_6985_444016)" fill-opacity="0.9"/>
</g>
<path d="M44 21.25C44 18.3505 46.3506 16 49.25 16C52.1494 16 54.5 18.3505 54.5 21.25V23C54.5 24.933 56.067 26.5 58 26.5H68.5C70.433 26.5 72 28.067 72 30V40.5C72 42.433 70.433 44 68.5 44H66.75C63.8506 44 61.5 46.3506 61.5 49.25C61.5 52.1494 63.8506 54.5 66.75 54.5H68.5C70.433 54.5 72 56.067 72 58V68.5C72 70.433 70.433 72 68.5 72H58C56.067 72 54.5 70.433 54.5 68.5V66.75C54.5 63.8506 52.1494 61.5 49.25 61.5C46.3506 61.5 44 63.8506 44 66.75V68.5C44 70.433 42.433 72 40.5 72H30C28.067 72 26.5 70.433 26.5 68.5V58C26.5 56.067 24.933 54.5 23 54.5H21.25C18.3505 54.5 16 52.1494 16 49.25C16 46.3506 18.3505 44 21.25 44H23C24.933 44 26.5 42.433 26.5 40.5V30C26.5 28.067 28.067 26.5 30 26.5H40.5C42.433 26.5 44 24.933 44 23V21.25Z" fill="white" fill-opacity="0.5"/>
<path d="M44 21.25C44 18.3505 46.3506 16 49.25 16C52.1494 16 54.5 18.3505 54.5 21.25V23C54.5 24.933 56.067 26.5 58 26.5H68.5C70.433 26.5 72 28.067 72 30V40.5C72 42.433 70.433 44 68.5 44H66.75C63.8506 44 61.5 46.3506 61.5 49.25C61.5 52.1494 63.8506 54.5 66.75 54.5H68.5C70.433 54.5 72 56.067 72 58V68.5C72 70.433 70.433 72 68.5 72H58C56.067 72 54.5 70.433 54.5 68.5V66.75C54.5 63.8506 52.1494 61.5 49.25 61.5C46.3506 61.5 44 63.8506 44 66.75V68.5C44 70.433 42.433 72 40.5 72H30C28.067 72 26.5 70.433 26.5 68.5V58C26.5 56.067 24.933 54.5 23 54.5H21.25C18.3505 54.5 16 52.1494 16 49.25C16 46.3506 18.3505 44 21.25 44H23C24.933 44 26.5 42.433 26.5 40.5V30C26.5 28.067 28.067 26.5 30 26.5H40.5C42.433 26.5 44 24.933 44 23V21.25Z" fill="url(#paint4_radial_6985_444016)" fill-opacity="0.6"/>
<path fill-rule="evenodd" clip-rule="evenodd" d="M49.25 18C47.4551 18 46 19.4551 46 21.25V23C46 26.0375 43.5375 28.5 40.5 28.5H30C29.1716 28.5 28.5 29.1716 28.5 30V40.5C28.5 43.5375 26.0375 46 23 46H21.25C19.4551 46 18 47.4551 18 49.25C18 51.0449 19.4551 52.5 21.25 52.5H23C26.0375 52.5 28.5 54.9624 28.5 58V68.5C28.5 69.3285 29.1716 70 30 70H40.5C41.3284 70 42 69.3285 42 68.5V66.75C42 62.746 45.246 59.5 49.25 59.5C53.254 59.5 56.5 62.746 56.5 66.75V68.5C56.5 69.3285 57.1715 70 58 70H68.5C69.3285 70 70 69.3285 70 68.5V58C70 57.1715 69.3285 56.5 68.5 56.5H66.75C62.746 56.5 59.5 53.254 59.5 49.25C59.5 45.246 62.746 42 66.75 42H68.5C69.3285 42 70 41.3284 70 40.5V30C70 29.1716 69.3285 28.5 68.5 28.5H58C54.9624 28.5 52.5 26.0375 52.5 23V21.25C52.5 19.4551 51.0449 18 49.25 18ZM49.25 16C46.3506 16 44 18.3505 44 21.25V23C44 24.933 42.433 26.5 40.5 26.5H30C28.067 26.5 26.5 28.067 26.5 30V40.5C26.5 42.433 24.933 44 23 44H21.25C18.3505 44 16 46.3506 16 49.25C16 52.1494 18.3505 54.5 21.25 54.5H23C24.933 54.5 26.5 56.067 26.5 58V68.5C26.5 70.433 28.067 72 30 72H40.5C42.433 72 44 70.433 44 68.5V66.75C44 63.8506 46.3506 61.5 49.25 61.5C52.1494 61.5 54.5 63.8506 54.5 66.75V68.5C54.5 70.433 56.067 72 58 72H68.5C70.433 72 72 70.433 72 68.5V58C72 56.067 70.433 54.5 68.5 54.5H66.75C63.8506 54.5 61.5 52.1494 61.5 49.25C61.5 46.3506 63.8506 44 66.75 44H68.5C70.433 44 72 42.433 72 40.5V30C72 28.067 70.433 26.5 68.5 26.5H58C56.067 26.5 54.5 24.933 54.5 23V21.25C54.5 18.3505 52.1494 16 49.25 16Z" fill="url(#paint5_linear_6985_444016)" fill-opacity="0.2"/>
<defs>
<linearGradient id="paint0_linear_6985_444016" x1="35.625" y1="8" x2="16.4583" y2="50.1667" gradientUnits="userSpaceOnUse">
<stop stop-color="white"/>
<stop offset="0.908412" stop-color="#DADADA"/>
</linearGradient>
<linearGradient id="paint1_linear_6985_444016" x1="14.7282" y1="14.5876" x2="14.7282" y2="32.445" gradientUnits="userSpaceOnUse">
<stop stop-color="white"/>
<stop offset="1" stop-color="white" stop-opacity="0.4"/>
</linearGradient>
<linearGradient id="paint2_linear_6985_444016" x1="41.3777" y1="9.63123" x2="41.3777" y2="36.8482" gradientUnits="userSpaceOnUse">
<stop stop-color="white"/>
<stop offset="1" stop-color="white" stop-opacity="0.4"/>
</linearGradient>
<linearGradient id="paint3_linear_6985_444016" x1="25.2532" y1="39.2048" x2="25.2532" y2="54.0001" gradientUnits="userSpaceOnUse">
<stop stop-color="white"/>
<stop offset="1" stop-color="white" stop-opacity="0.4"/>
</linearGradient>
<radialGradient id="paint4_radial_6985_444016" cx="0" cy="0" r="1" gradientUnits="userSpaceOnUse" gradientTransform="translate(26 22) rotate(48.0128) scale(53.8145 34.1812)">
<stop offset="0.367795" stop-color="white"/>
<stop offset="0.830646" stop-color="#C7C7C7" stop-opacity="0"/>
</radialGradient>
<linearGradient id="paint5_linear_6985_444016" x1="44" y1="16" x2="44" y2="72" gradientUnits="userSpaceOnUse">
<stop stop-color="white"/>
<stop offset="1" stop-color="white" stop-opacity="0.4"/>
</linearGradient>
</defs>
</svg>
