<svg width="80" height="80" viewBox="0 0 80 80" fill="none" xmlns="http://www.w3.org/2000/svg">
<path fill-rule="evenodd" clip-rule="evenodd" d="M4 32C4 45.2548 14.7452 56 28 56H56C64.8366 56 72 48.8366 72 40C72 31.1634 64.8366 24 56 24C54.2204 24 52.5087 24.2905 50.9097 24.8268C47.8597 15.0759 38.7562 8 28 8C14.7452 8 4 18.7452 4 32Z" fill="url(#paint0_linear_6985_442313)"/>
<path d="M22 46C22 42.6863 24.6863 40 28 40H64C67.3137 40 70 42.6863 70 46V66C70 69.3137 67.3137 72 64 72H28C24.6863 72 22 69.3137 22 66V46Z" fill="#FDE9A2"/>
<path d="M22 46C22 42.6863 24.6863 40 28 40H64C67.3137 40 70 42.6863 70 46V66C70 69.3137 67.3137 72 64 72H28C24.6863 72 22 69.3137 22 66V46Z" fill="url(#paint1_radial_6985_442313)" fill-opacity="0.6"/>
<path fill-rule="evenodd" clip-rule="evenodd" d="M64 42H28C25.7909 42 24 43.7909 24 46V66C24 68.2091 25.7909 70 28 70H64C66.2091 70 68 68.2091 68 66V46C68 43.7909 66.2091 42 64 42ZM28 40C24.6863 40 22 42.6863 22 46V66C22 69.3137 24.6863 72 28 72H64C67.3137 72 70 69.3137 70 66V46C70 42.6863 67.3137 40 64 40H28Z" fill="url(#paint2_linear_6985_442313)" fill-opacity="0.2"/>
<path fill-rule="evenodd" clip-rule="evenodd" d="M46 28C43.7909 28 42 29.7909 42 32V34C42 35.1046 41.1046 36 40 36C38.8954 36 38 35.1046 38 34V32C38 27.5817 41.5817 24 46 24C50.4183 24 54 27.5817 54 32V34C54 35.1046 53.1046 36 52 36C50.8954 36 50 35.1046 50 34V32C50 29.7909 48.2091 28 46 28Z" fill="#FFF4CE"/>
<path fill-rule="evenodd" clip-rule="evenodd" d="M46 28C43.7909 28 42 29.7909 42 32V34C42 35.1046 41.1046 36 40 36C38.8954 36 38 35.1046 38 34V32C38 27.5817 41.5817 24 46 24C50.4183 24 54 27.5817 54 32V34C54 35.1046 53.1046 36 52 36C50.8954 36 50 35.1046 50 34V32C50 29.7909 48.2091 28 46 28Z" fill="url(#paint3_radial_6985_442313)" fill-opacity="0.6"/>
<path fill-rule="evenodd" clip-rule="evenodd" d="M42 32C42 29.7909 43.7909 28 46 28C48.2091 28 50 29.7909 50 32V34C50 35.1046 50.8954 36 52 36C53.1046 36 54 35.1046 54 34V32C54 27.5817 50.4183 24 46 24C41.5817 24 38 27.5817 38 32V34C38 35.1046 38.8954 36 40 36C41.1046 36 42 35.1046 42 34V32Z" fill="url(#paint4_linear_6985_442313)" fill-opacity="0.2"/>
<path d="M20 38C20 34.6863 22.6863 32 26 32H66C69.3137 32 72 34.6863 72 38V44.161C72 46.5013 70.6393 48.628 68.5144 49.6088L48.5144 58.8395C46.919 59.5759 45.081 59.5759 43.4857 58.8395L23.4857 49.6088C21.3608 48.628 20 46.5013 20 44.161V38Z" fill="#FFEDAF"/>
<path d="M20 38C20 34.6863 22.6863 32 26 32H66C69.3137 32 72 34.6863 72 38V44.161C72 46.5013 70.6393 48.628 68.5144 49.6088L48.5144 58.8395C46.919 59.5759 45.081 59.5759 43.4857 58.8395L23.4857 49.6088C21.3608 48.628 20 46.5013 20 44.161V38Z" fill="url(#paint5_radial_6985_442313)" fill-opacity="0.6"/>
<path fill-rule="evenodd" clip-rule="evenodd" d="M66 34H26C23.7909 34 22 35.7909 22 38V44.161C22 45.7212 22.9072 47.139 24.3238 47.7928L44.3238 57.0236C45.3873 57.5145 46.6127 57.5145 47.6762 57.0236L67.6762 47.7928C69.0928 47.139 70 45.7212 70 44.161V38C70 35.7909 68.2091 34 66 34ZM26 32C22.6863 32 20 34.6863 20 38V44.161C20 46.5013 21.3608 48.628 23.4857 49.6088L43.4857 58.8395C45.081 59.5759 46.919 59.5759 48.5144 58.8395L68.5144 49.6088C70.6393 48.628 72 46.5013 72 44.161V38C72 34.6863 69.3137 32 66 32H26Z" fill="url(#paint6_linear_6985_442313)" fill-opacity="0.2"/>
<path d="M48 52C48 53.1046 47.1046 54 46 54C44.8954 54 44 53.1046 44 52C44 50.8954 44.8954 50 46 50C47.1046 50 48 50.8954 48 52Z" fill="url(#paint7_linear_6985_442313)"/>
<defs>
<linearGradient id="paint0_linear_6985_442313" x1="61.6" y1="8" x2="40.8682" y2="58.8871" gradientUnits="userSpaceOnUse">
<stop offset="0.17707" stop-color="#F8CF40"/>
<stop offset="0.864598" stop-color="#FF6D2F"/>
</linearGradient>
<radialGradient id="paint1_radial_6985_442313" cx="0" cy="0" r="1" gradientUnits="userSpaceOnUse" gradientTransform="translate(34.6429 35.2941) rotate(54.4657) scale(57.3946 40.2221)">
<stop offset="0.317306" stop-color="#FEA338"/>
<stop offset="1" stop-color="#FE9A38" stop-opacity="0"/>
</radialGradient>
<linearGradient id="paint2_linear_6985_442313" x1="48" y1="40" x2="48" y2="72" gradientUnits="userSpaceOnUse">
<stop stop-color="white"/>
<stop offset="1" stop-color="white" stop-opacity="0.4"/>
</linearGradient>
<radialGradient id="paint3_radial_6985_442313" cx="0" cy="0" r="1" gradientUnits="userSpaceOnUse" gradientTransform="translate(38 17) rotate(56.631) scale(21.211 17.7914)">
<stop offset="0.0810828" stop-color="#FEA338"/>
<stop offset="1" stop-color="#FE9A38" stop-opacity="0"/>
</radialGradient>
<linearGradient id="paint4_linear_6985_442313" x1="46" y1="24" x2="46" y2="36" gradientUnits="userSpaceOnUse">
<stop stop-color="white"/>
<stop offset="1" stop-color="white" stop-opacity="0.4"/>
</linearGradient>
<radialGradient id="paint5_radial_6985_442313" cx="0" cy="0" r="1" gradientUnits="userSpaceOnUse" gradientTransform="translate(31 27) rotate(46.9749) scale(41.0366 36.1155)">
<stop offset="0.0810828" stop-color="#FEA338"/>
<stop offset="1" stop-color="#FE9A38" stop-opacity="0"/>
</radialGradient>
<linearGradient id="paint6_linear_6985_442313" x1="48" y1="32" x2="48" y2="60" gradientUnits="userSpaceOnUse">
<stop stop-color="white"/>
<stop offset="1" stop-color="white" stop-opacity="0.4"/>
</linearGradient>
<linearGradient id="paint7_linear_6985_442313" x1="46" y1="50.3333" x2="46" y2="53.6667" gradientUnits="userSpaceOnUse">
<stop stop-color="white"/>
<stop offset="1" stop-color="white" stop-opacity="0.6"/>
</linearGradient>
</defs>
</svg>
